<svg width="50" height="50" viewBox="0 0 50 50" fill="none" xmlns="http://www.w3.org/2000/svg">
<path d="M22.3134 8.31532C22.3134 12.9844 24.6149 16.433 24.7619 16.6462C24.4017 16.433 18.7031 12.9844 18.7031 8.31532C18.7031 6.53587 20.1516 5.09473 21.9238 5.09473C22.3502 5.09473 22.7546 5.1756 23.1296 5.33003C22.6517 5.80058 22.3134 6.96236 22.3134 8.31532Z" fill="#E2E5EC"/>
<path d="M30.8362 8.31532C30.8362 13.1315 24.7773 16.6535 24.7773 16.6535C24.9244 16.433 27.2259 12.9844 27.2259 8.31532C27.2259 6.96972 26.895 5.8153 26.417 5.33003C26.792 5.1756 27.1965 5.09473 27.623 5.09473C29.395 5.09473 30.8362 6.53587 30.8362 8.31532Z" fill="#E2E5EC"/>
<path d="M39.2744 45.9119C38.8683 45.9119 38.5391 45.583 38.5391 45.1766V36.0507C38.5391 35.6443 38.8683 35.3154 39.2744 35.3154C39.6804 35.3154 40.0097 35.6443 40.0097 36.0507V45.1766C40.0097 45.583 39.6804 45.9119 39.2744 45.9119Z" fill="white"/>
<path d="M9.89936 46.3628C9.49329 46.3628 9.16406 46.0339 9.16406 45.6275V31.5205C9.16406 31.114 9.49329 30.7852 9.89936 30.7852C10.3054 30.7852 10.6347 31.114 10.6347 31.5205V45.6275C10.6347 46.0339 10.3054 46.3628 9.89936 46.3628Z" fill="white"/>
<path d="M14.8649 31.6886C14.6007 31.6886 14.3343 31.6598 14.0704 31.6002C13.674 31.5119 13.4248 31.1184 13.5139 30.722C13.6026 30.3264 13.9953 30.0765 14.3921 30.1655C15.0322 30.3106 15.6953 30.1533 16.2131 29.739C16.7247 29.3297 17.018 28.7172 17.018 28.0595V17.3316C17.018 16.1763 16.2432 15.1423 15.1342 14.817L12.8224 14.137L10.4815 17.2649C10.3426 17.4501 10.1243 17.5593 9.89269 17.5593C9.66076 17.5593 9.44211 17.4494 9.30352 17.2642L6.96983 14.137L4.65911 14.8163C3.5497 15.1423 2.77528 16.1763 2.77528 17.3316V28.0595C2.77528 28.7172 3.0686 29.3297 3.58022 29.739C4.09758 30.1533 4.76107 30.3099 5.40122 30.1655C5.79831 30.0758 6.19073 30.3264 6.27941 30.722C6.36845 31.1184 6.11929 31.5119 5.72292 31.6002C4.64511 31.8437 3.52888 31.5823 2.6611 30.8872C1.79907 30.1971 1.30469 29.166 1.30469 28.0595V17.3316C1.30469 15.5279 2.51354 13.9137 4.24443 13.4053L7.04558 12.5824C7.34142 12.4962 7.65845 12.6018 7.84227 12.8474L9.89341 15.5961L11.951 12.8466C12.1352 12.6018 12.4522 12.4969 12.7473 12.5824L15.5489 13.406C17.2794 13.9137 18.4886 15.5279 18.4886 17.3316V28.0595C18.4886 29.166 17.9942 30.1971 17.1322 30.8872C16.477 31.4121 15.6799 31.6886 14.8649 31.6886Z" fill="#D9C18A"/>
<path d="M7.73017 48.5293C6.12997 48.5293 4.82812 47.2275 4.82812 45.6276V20.7138C4.82812 20.3074 5.15736 19.9785 5.56342 19.9785C5.96948 19.9785 6.29871 20.3074 6.29871 20.7138V45.6276C6.29871 46.4168 6.94102 47.0587 7.73017 47.0587C8.51932 47.0587 9.16126 46.4168 9.16126 45.6276C9.16126 45.2212 9.49049 44.8923 9.89656 44.8923C10.3026 44.8923 10.6319 45.2212 10.6319 45.6276C10.6319 47.2275 9.33001 48.5293 7.73017 48.5293Z" fill="#D9C18A"/>
<path d="M12.0661 48.5293C10.4659 48.5293 9.16406 47.2275 9.16406 45.6276C9.16406 45.2212 9.49329 44.8923 9.89936 44.8923C10.3054 44.8923 10.6347 45.2212 10.6347 45.6276C10.6347 46.4168 11.277 47.0587 12.0661 47.0587C12.8553 47.0587 13.4972 46.4168 13.4972 45.6276V20.7138C13.4972 20.3074 13.8264 19.9785 14.2325 19.9785C14.6386 19.9785 14.9678 20.3074 14.9678 20.7138V45.6276C14.9678 47.2275 13.6659 48.5293 12.0661 48.5293Z" fill="#D9C18A"/>
<path d="M9.89656 11.6076C7.10186 11.6076 4.82812 9.33419 4.82812 6.53949C4.82812 3.7448 7.10186 1.4707 9.89656 1.4707C12.6912 1.4707 14.965 3.7448 14.965 6.53949C14.965 9.33419 12.6912 11.6076 9.89656 11.6076ZM9.89656 2.94129C7.91255 2.94129 6.29871 4.55549 6.29871 6.53949C6.29871 8.52349 7.91255 10.137 9.89656 10.137C11.8806 10.137 13.4944 8.52349 13.4944 6.53949C13.4944 4.55549 11.8806 2.94129 9.89656 2.94129Z" fill="#D9C18A"/>
<path d="M39.2756 36.7953C36.8784 36.7953 34.4808 36.1742 32.0986 34.9319C31.797 34.7747 31.6426 34.4314 31.7252 34.1011L35.5708 18.7483C35.6699 18.3548 36.0691 18.1171 36.463 18.214C36.8568 18.3124 37.0959 18.7116 36.9976 19.1059L33.2949 33.8871C37.3153 35.8216 41.237 35.823 45.251 33.8871L41.5418 19.1059C41.4427 18.7124 41.6818 18.3124 42.0761 18.214C42.4706 18.1171 42.8695 18.3548 42.9679 18.7483L46.8206 34.1011C46.9036 34.4307 46.7495 34.7747 46.448 34.9319C44.0694 36.1742 41.6729 36.7946 39.2756 36.7953Z" fill="#D9C18A"/>
<path d="M41.3478 47.9849C40.6125 47.9849 39.9091 47.6984 39.3677 47.1771C38.8263 46.6156 38.5391 45.9119 38.5391 45.1766C38.5391 44.7701 38.8683 44.4413 39.2744 44.4413C39.6804 44.4413 40.0097 44.7701 40.0097 45.1766C40.0097 45.5298 40.1507 45.8709 40.4071 46.1373C40.653 46.3736 40.9945 46.5143 41.3478 46.5143C42.0859 46.5143 42.6862 45.914 42.6862 45.1766V36.0507C42.6862 35.6443 43.0155 35.3154 43.4215 35.3154C43.8276 35.3154 44.1568 35.6443 44.1568 36.0507V45.1766C44.1568 46.7254 42.8966 47.9849 41.3478 47.9849Z" fill="#D9C18A"/>
<path d="M37.2026 47.9849C35.6466 47.9849 34.3867 46.7254 34.3867 45.1766V36.0507C34.3867 35.6443 34.7159 35.3154 35.122 35.3154C35.5281 35.3154 35.8573 35.6443 35.8573 36.0507V45.1766C35.8573 45.914 36.4576 46.5143 37.1954 46.5143C37.9408 46.5143 38.5411 45.914 38.5411 45.1766C38.5411 44.7701 38.8703 44.4413 39.2764 44.4413C39.6824 44.4413 40.0116 44.7701 40.0116 45.1766C40.0116 46.7254 38.7515 47.9849 37.2026 47.9849Z" fill="#D9C18A"/>
<path d="M39.4434 11.6076C36.6487 11.6076 34.375 9.33419 34.375 6.53949C34.375 3.7448 36.6487 1.4707 39.4434 1.4707C42.2381 1.4707 44.5119 3.7448 44.5119 6.53949C44.5119 9.33419 42.2381 11.6076 39.4434 11.6076ZM39.4434 2.94129C37.4594 2.94129 35.8456 4.55549 35.8456 6.53949C35.8456 8.52349 37.4594 10.137 39.4434 10.137C41.4274 10.137 43.0413 8.52349 43.0413 6.53949C43.0413 4.55549 41.4274 2.94129 39.4434 2.94129Z" fill="#D9C18A"/>
<path d="M45.5977 30.4115C45.3934 30.4115 45.1869 30.3907 44.9812 30.3498C44.9514 30.344 44.9223 30.3361 44.8932 30.3261C44.508 30.1982 44.2987 29.781 44.4272 29.3962C44.5479 29.0343 44.9241 28.826 45.2871 28.9115C45.8436 29.0156 46.38 28.8433 46.7699 28.4354C47.1634 28.024 47.3102 27.471 47.1731 26.9189L44.8078 17.3844C44.4233 15.8327 43.0385 14.7499 41.4405 14.7499H37.1037C35.5057 14.7499 34.1205 15.8334 33.736 17.3844L31.3714 26.9181C31.2343 27.471 31.3811 28.024 31.775 28.4354C32.1685 28.8476 32.7149 29.0192 33.2736 28.9072C33.6732 28.8253 34.0591 29.0845 34.1396 29.4831C34.2196 29.8816 33.9615 30.2693 33.5637 30.349C32.5153 30.5623 31.4501 30.2248 30.7119 29.4522C29.9737 28.6795 29.6869 27.6003 29.9439 26.5634L32.3085 17.0297C32.8564 14.8217 34.8282 13.2793 37.1037 13.2793H41.4405C43.716 13.2793 45.6878 14.8217 46.2353 17.0304L48.6006 26.5641C48.8577 27.6003 48.5708 28.6795 47.8333 29.4515C47.2399 30.0726 46.4349 30.4115 45.5977 30.4115Z" fill="#D9C18A"/>
<path d="M24.7706 17.3874C24.6432 17.3874 24.5157 17.3543 24.4015 17.2883C24.1387 17.1353 17.9648 13.4933 17.9648 8.31537C17.9648 6.13319 19.7402 4.35742 21.9228 4.35742C23.0107 4.35742 24.0303 4.80406 24.767 5.56879C25.4995 4.80406 26.5213 4.35742 27.6177 4.35742C29.7942 4.35742 31.5649 6.13319 31.5649 8.31537C31.5649 13.4926 25.4025 17.1353 25.1401 17.2875C25.0259 17.3543 24.8984 17.3874 24.7706 17.3874ZM21.9228 5.82801C20.5513 5.82801 19.4354 6.94388 19.4354 8.31537C19.4354 11.9997 23.5047 14.9546 24.7695 15.7832C26.0319 14.9517 30.0943 11.9904 30.0943 8.31537C30.0943 6.94388 28.9835 5.82801 27.6177 5.82801C26.6904 5.82801 25.8491 6.33568 25.4223 7.15283C25.2962 7.39482 25.0464 7.54633 24.7739 7.54777C24.7728 7.54777 24.7717 7.54777 24.7706 7.54777C24.4992 7.54777 24.2497 7.39841 24.1219 7.15858C23.6838 6.33783 22.8412 5.82801 21.9228 5.82801Z" fill="#D9C18A"/>
</svg>
