<svg width="50" height="50" viewBox="0 0 50 50" fill="none" xmlns="http://www.w3.org/2000/svg">
<path d="M30.0087 48.5306C29.6027 48.5306 29.2734 48.2018 29.2734 47.7954C29.2734 47.3889 29.6027 47.0601 30.0087 47.0601C37.6381 47.0601 43.8454 40.8531 43.8454 33.223C43.8454 26.3332 38.7059 20.4416 31.8908 19.5181C31.4883 19.4636 31.2065 19.093 31.261 18.6909C31.3156 18.2881 31.689 18.0059 32.0882 18.0605C39.6293 19.0823 45.316 25.6008 45.316 33.223C45.316 41.6638 38.4492 48.5306 30.0087 48.5306Z" fill="#D9C18A"/>
<path d="M15.4365 33.9582C15.0304 33.9582 14.7012 33.6293 14.7012 33.2229C14.7012 25.6294 20.3606 19.1144 27.865 18.0689C28.2686 18.0072 28.6387 18.293 28.6947 18.6958C28.7507 19.0979 28.4703 19.4692 28.0682 19.5252C21.2861 20.4701 16.1718 26.359 16.1718 33.2229C16.1718 33.6293 15.8425 33.9582 15.4365 33.9582Z" fill="#D9C18A"/>
<path d="M30.0087 45.4467C29.6027 45.4467 29.2734 45.1178 29.2734 44.7114C29.2734 44.3049 29.6027 43.9761 30.0087 43.9761C35.9385 43.9761 40.7624 39.1521 40.7624 33.2224C40.7624 28.657 37.864 24.5791 33.5495 23.074C33.166 22.9405 32.9639 22.5211 33.0975 22.1377C33.2317 21.7535 33.6493 21.5503 34.0342 21.6853C38.9382 23.3965 42.233 28.0323 42.233 33.2224C42.233 39.9628 36.7492 45.4467 30.0087 45.4467Z" fill="#D9C18A"/>
<path d="M18.5185 33.9583C18.1124 33.9583 17.7832 33.6295 17.7832 33.223C17.7832 26.4819 23.2674 20.998 30.0082 20.998C30.0972 20.998 30.1852 21.0002 30.2753 21.0138C30.6774 21.072 30.956 21.4447 30.8979 21.8468C30.8397 22.2482 30.4677 22.5282 30.0689 22.4694C30.0689 22.4694 30.0681 22.4694 30.0678 22.4694C24.077 22.4694 19.2538 27.2933 19.2538 33.223C19.2538 33.6295 18.9246 33.9583 18.5185 33.9583Z" fill="#D9C18A"/>
<path d="M18.0112 42.2266C17.9781 42.2266 17.9447 42.2245 17.9113 42.2202C10.3703 41.1977 4.68359 34.6791 4.68359 27.0569C4.68359 18.6168 11.5504 11.75 19.9909 11.75C25.0205 11.75 29.7321 14.2252 32.5939 18.3712C33.3967 19.5223 34.035 20.7933 34.4889 22.1461C35.0256 23.7158 35.2985 25.3695 35.2985 27.0569C35.2985 34.6504 29.6391 41.1654 22.1346 42.2109C21.7329 42.2683 21.3606 41.9875 21.3049 41.584C21.2489 41.1819 21.5293 40.8106 21.9314 40.7546C28.7135 39.8097 33.8279 33.9208 33.8279 27.0569C33.8279 25.5317 33.5816 24.0382 33.0958 22.6178C32.6851 21.3936 32.1103 20.2482 31.3858 19.2099C28.7964 15.4588 24.5373 13.2206 19.9909 13.2206C12.3615 13.2206 6.15418 19.4275 6.15418 27.0569C6.15418 33.9467 11.2937 39.8384 18.1088 40.7625C18.5113 40.8171 18.7931 41.1876 18.7386 41.5904C18.6886 41.9588 18.3731 42.2266 18.0112 42.2266Z" fill="white"/>
<path d="M19.9899 39.283C19.898 39.283 19.8061 39.2801 19.7131 39.265C19.3117 39.2018 19.0385 38.8249 19.102 38.4235C19.1656 38.0256 19.5364 37.7506 19.9357 37.8117C25.9207 37.8117 30.7443 32.987 30.7443 27.0573C30.7443 25.3174 30.3206 23.5984 29.5196 22.0847C28.9865 21.0607 28.2928 20.1344 27.4552 19.3259C25.4454 17.3764 22.7946 16.3036 19.9899 16.3036C14.0601 16.3036 9.23621 21.1275 9.23621 27.0573C9.23621 31.6292 12.1375 35.707 16.4552 37.2056C16.7511 37.3083 16.9496 37.5869 16.9496 37.9C16.9496 38.3064 16.6204 38.6396 16.2143 38.6396C16.0998 38.6396 15.9914 38.613 15.8948 38.5671C11.0292 36.8416 7.76562 32.2266 7.76562 27.0573C7.76562 20.3168 13.2495 14.833 19.9899 14.833C23.1788 14.833 26.1932 16.053 28.4777 18.2689C29.4284 19.1866 30.2176 20.2407 30.8218 21.4011C31.7323 23.1216 32.2149 25.079 32.2149 27.0573C32.2149 33.7984 26.7307 39.283 19.9899 39.283Z" fill="white"/>
<path d="M22.8346 13.4985C22.6138 13.4985 22.3955 13.3994 22.2504 13.2105L21.341 12.0236C21.1568 11.783 21.1389 11.4542 21.2961 11.1949L22.0074 10.0209C21.6203 10.0001 21.313 9.67911 21.313 9.28705C21.313 8.88063 21.6422 8.55176 22.0483 8.55176H23.3121C23.5774 8.55176 23.8223 8.69465 23.9526 8.92587C24.0829 9.1578 24.0786 9.44143 23.9408 9.66834L22.8141 11.5274L23.418 12.3158C23.665 12.6382 23.6036 13.1 23.2816 13.347C23.148 13.4489 22.9908 13.4985 22.8346 13.4985Z" fill="white"/>
<path d="M17.7672 13.2041L17.1776 12.7632L16.6244 12.2792L17.1819 11.5561L16.0399 9.66762C15.9024 9.44072 15.898 9.15708 16.0284 8.92587C16.1587 8.69465 16.4036 8.55176 16.6689 8.55176H17.7557C18.1617 8.55176 18.491 8.88063 18.491 9.28705C18.491 9.62382 18.2648 9.90746 17.956 9.99434L18.7006 11.2258C18.8579 11.4858 18.8392 11.8153 18.6536 12.0559L17.7672 13.2041Z" fill="white"/>
<path d="M22.0484 10.0229H17.7558C17.5469 10.0229 17.3476 9.93387 17.208 9.77805L13.7792 5.94863C13.5085 5.64633 13.534 5.18102 13.8367 4.91031C14.1393 4.63889 14.6039 4.66546 14.875 4.96776L18.0843 8.55232H21.7307L25.1192 4.95412C25.3978 4.65827 25.8627 4.64391 26.1586 4.92324C26.4541 5.20113 26.4681 5.66643 26.1898 5.96227L22.5837 9.79169C22.4448 9.93889 22.2513 10.0229 22.0484 10.0229Z" fill="white"/>
<path d="M25.6545 6.19339H14.3271C14.0244 6.19339 13.7527 6.00813 13.6424 5.72593C13.5322 5.44445 13.6055 5.1242 13.8277 4.91811L17.3419 1.66602C17.478 1.54036 17.656 1.4707 17.8413 1.4707H22.1403C22.3256 1.4707 22.5037 1.54036 22.6397 1.66602L26.1539 4.91811C26.3762 5.1242 26.4494 5.44445 26.3392 5.72593C26.229 6.00813 25.9572 6.19339 25.6545 6.19339ZM16.2041 4.7228H23.7775L21.8524 2.94129H18.1292L16.2041 4.7228Z" fill="white"/>
<path d="M30.0084 48.5302C24.9791 48.5302 20.2679 46.0551 17.4057 41.909C16.5879 40.7242 15.9528 39.4525 15.5169 38.1298C14.9769 36.5752 14.7012 34.9208 14.7012 33.2226C14.7012 32.8162 15.0304 32.4873 15.4365 32.4873C15.8425 32.4873 16.1718 32.8162 16.1718 33.2226C16.1718 34.7557 16.4202 36.2485 16.9099 37.6588C17.3056 38.8594 17.8782 40.004 18.616 41.0732C21.2036 44.8214 25.4624 47.0596 30.0084 47.0596C30.4145 47.0596 30.7437 47.3885 30.7437 47.7949C30.7437 48.2013 30.4145 48.5302 30.0084 48.5302Z" fill="#D9C18A"/>
<path d="M30.0082 45.4469C26.8193 45.4469 23.8052 44.2269 21.5207 42.0117C20.5707 41.0947 19.7819 40.0406 19.177 38.8795C18.2657 37.159 17.7832 35.2016 17.7832 33.2226C17.7832 32.8162 18.1124 32.4873 18.5185 32.4873C18.9246 32.4873 19.2538 32.8162 19.2538 33.2226C19.2538 34.9625 19.6774 36.6822 20.4788 38.1959C21.0127 39.2206 21.7063 40.1469 22.5432 40.9547C24.5531 42.9035 27.2034 43.9763 30.0082 43.9763C30.4143 43.9763 30.7435 44.3051 30.7435 44.7116C30.7435 45.118 30.4143 45.4469 30.0082 45.4469Z" fill="#D9C18A"/>
</svg>
