<svg width="50" height="50" viewBox="0 0 50 50" fill="none" xmlns="http://www.w3.org/2000/svg">
<path d="M24.7877 24.9999C19.2215 24.9999 14.1333 19.7278 14.8392 9.0293C15.4201 17.1911 19.9201 21.2205 24.7877 21.2205C29.1407 21.2205 34.0745 17.9558 34.751 10.2426C35.5745 20.6911 29.7877 24.9999 24.7877 24.9999Z" fill="white"/>
<path d="M25.009 36.9057C24.9203 36.9057 24.8302 36.8899 24.7426 36.8554C24.3642 36.7082 24.1764 36.2824 24.3236 35.904C24.9824 34.2094 26.0721 32.7252 27.5624 31.493C27.6942 31.3838 27.8601 31.3242 28.031 31.3242C28.437 31.3242 28.7698 31.6531 28.7698 32.0595C28.7698 32.3144 28.6413 32.5399 28.4453 32.6713C27.1786 33.7326 26.253 34.9993 25.6944 36.4368C25.5813 36.7276 25.3034 36.9057 25.009 36.9057Z" fill="#D9C18A"/>
<path d="M25.1675 41.0671C24.8734 41.0671 24.5955 40.889 24.4821 40.5982C23.9177 39.1484 22.9828 37.8739 21.7028 36.8104C21.5233 36.6762 21.4062 36.4622 21.4062 36.2216C21.4062 35.8152 21.7319 35.4863 22.138 35.4863H22.1451C22.316 35.4863 22.4815 35.5459 22.6133 35.6544C24.1022 36.8844 25.1922 38.3679 25.8528 40.0654C26 40.4438 25.8126 40.8696 25.4342 41.0168C25.3466 41.0513 25.2561 41.0671 25.1675 41.0671Z" fill="#D9C18A"/>
<path d="M22.2742 6.2434C22.1697 6.2434 22.0638 6.22114 21.9629 6.17374C21.5949 6.00213 21.4365 5.56411 21.6085 5.19646C22.5775 3.12701 24.2363 1.70525 24.3063 1.64565C24.5781 1.41444 24.9762 1.41228 25.2509 1.63991C25.3184 1.69592 26.9175 3.03366 27.9163 5.01479C28.0991 5.37741 27.9533 5.81974 27.5907 6.00213C27.227 6.18667 26.7854 6.03875 26.603 5.67685C26.054 4.58755 25.281 3.71295 24.7888 3.21749C24.2822 3.73952 23.4765 4.67515 22.9405 5.81974C22.8156 6.08686 22.5506 6.2434 22.2742 6.2434Z" fill="white"/>
<path d="M24.8065 9.70627C24.7534 9.70627 24.6995 9.70053 24.6457 9.68832C24.2493 9.6 23.9998 9.20722 24.0881 8.81085C24.4252 7.30077 25.3386 5.94148 26.8024 4.77104C28.2539 3.60706 29.7263 3.06062 29.7884 3.03764C30.1223 2.91629 30.4968 3.04985 30.6763 3.3579C30.7384 3.46417 32.1989 6.00467 32.0101 8.90922C31.9835 9.31421 31.6295 9.61723 31.2285 9.59497C30.8231 9.5684 30.5162 9.21871 30.5424 8.813C30.653 7.11407 30.0674 5.51064 29.6954 4.68272C29.1956 4.92471 28.4507 5.334 27.7215 5.91922C26.5252 6.87568 25.7859 7.95636 25.5235 9.13111C25.447 9.47362 25.1433 9.70627 24.8065 9.70627Z" fill="#D9C18A"/>
<path d="M25.0094 10.3763C24.682 10.3763 24.3833 10.1566 24.2978 9.82485C24.2458 9.62307 24.188 9.4213 24.1165 9.23317C23.6879 8.03401 22.9138 6.97774 21.8101 6.07873C20.9714 5.39872 20.1227 4.9643 19.5841 4.72734C19.2222 5.51864 18.6657 7.10268 18.9767 8.88203C19.0467 9.28199 18.7792 9.66257 18.3792 9.73294C17.9782 9.80259 17.5983 9.53475 17.5283 9.13479C16.9855 6.03062 18.5494 3.51453 18.6166 3.40898C18.795 3.1275 19.1393 3.00184 19.4581 3.10093C19.5256 3.12247 21.1323 3.63588 22.7375 4.93773C24.0533 6.00907 24.9811 7.28291 25.4963 8.72406C25.5817 8.94881 25.6561 9.20229 25.7218 9.4572C25.8234 9.8507 25.5868 10.2514 25.1933 10.3533C25.1319 10.3691 25.0701 10.3763 25.0094 10.3763Z" fill="#D9C18A"/>
<path d="M24.7878 25.7357C22.0811 25.7357 19.5528 24.5753 17.6686 22.4685C14.7389 19.1927 13.5215 13.8503 14.241 7.42656C14.2661 7.20253 14.3921 7.00291 14.5835 6.88371C14.7745 6.76523 15.0097 6.7401 15.2215 6.81693C15.5302 6.92823 22.1824 9.37251 24.4486 13.413C28.0518 8.77149 33.8713 6.90669 34.1941 6.80616C34.3962 6.74225 34.6167 6.77026 34.7969 6.88156C34.9775 6.99214 35.1017 7.17524 35.1376 7.3842C36.4919 15.2994 34.4224 19.7521 32.4481 22.093C30.4954 24.408 27.7035 25.7357 24.7878 25.7357ZM15.6085 8.55751C15.1529 14.1218 16.2616 18.6886 18.7651 21.4883C20.3664 23.2792 22.5055 24.2651 24.7878 24.2651C27.2691 24.2651 29.6513 23.1277 31.324 21.1451C33.0258 19.1266 34.798 15.3145 33.8254 8.50724C31.4694 9.44431 24.6848 12.6684 23.346 19.1353C23.2638 19.5323 22.8721 19.7822 22.4771 19.7061C22.0793 19.6235 21.8237 19.2344 21.9063 18.8365C22.2165 17.338 22.7737 16.0024 23.4856 14.8168C22.3439 11.7155 17.6008 9.40769 15.6085 8.55751Z" fill="white"/>
<path d="M25.0063 48.5293C24.9654 48.5293 24.9238 48.5265 24.8817 48.5193C24.4821 48.4511 24.2129 48.0712 24.2804 47.6713C24.2865 47.6361 24.8656 44.0465 24.0308 35.6344C23.1911 27.1677 24.0118 24.9382 24.1084 24.712C24.2674 24.3379 24.7008 24.1648 25.0727 24.3235C25.4422 24.4808 25.6163 24.9044 25.467 25.2749C25.4418 25.3446 24.7047 27.5311 25.4943 35.4894C26.3531 44.1427 25.7556 47.7696 25.7298 47.9197C25.6684 48.2773 25.3578 48.5293 25.0063 48.5293Z" fill="white"/>
<path d="M30.9178 33.4597C29.1291 33.4597 27.7669 32.7531 27.6836 32.7093C27.3849 32.5506 27.2327 32.2088 27.3153 31.8807C27.3555 31.7198 28.3353 27.9313 31.2671 26.4607C34.2079 24.9873 37.8244 26.4737 37.977 26.5383C38.1601 26.6151 38.3045 26.763 38.377 26.9483C38.4495 27.1328 38.4438 27.3396 38.3615 27.5206C38.2905 27.6771 36.5851 31.3716 33.715 32.8098C32.7474 33.2945 31.7827 33.4597 30.9178 33.4597ZM28.933 31.6387C29.7753 31.9302 31.442 32.3029 33.0562 31.4951C34.7691 30.637 36.0433 28.7004 36.6425 27.6398C35.5651 27.3346 33.5523 26.9605 31.9263 27.7748C30.2054 28.6379 29.296 30.6348 28.933 31.6387Z" fill="white"/>
<path d="M18.8666 37.8194C18.0348 37.8194 17.1315 37.66 16.2353 37.2105C13.2992 35.7385 11.6961 31.7324 11.6293 31.563C11.4875 31.2025 11.6498 30.7939 11.9998 30.6288C12.16 30.5534 15.9603 28.792 18.9643 30.2992C21.9608 31.8006 22.8321 35.9008 22.8677 36.0745C22.9309 36.3826 22.7912 36.6971 22.5205 36.8565C22.4279 36.9104 20.851 37.8194 18.8666 37.8194ZM13.3028 31.6944C13.8496 32.8074 15.108 35.0003 16.8945 35.8965C18.6071 36.7531 20.4299 36.1894 21.2822 35.8268C20.9663 34.7806 20.0978 32.5122 18.3051 31.6132C16.5933 30.7559 14.3942 31.3159 13.3028 31.6944Z" fill="white"/>
</svg>
