<svg width="50" height="50" viewBox="0 0 50 50" fill="none" xmlns="http://www.w3.org/2000/svg">
<path d="M25.8969 29.6625C25.4338 29.9492 25.169 30.1037 25.169 30.1037C25.169 30.1037 21.3013 27.9125 17.522 24.1992C13.9189 20.6698 10.4043 15.7581 10.4043 10.0448C10.4043 3.38676 18.2246 -0.206316 23.2572 4.03747C18.7275 3.4199 14.4263 6.98536 14.4263 11.8095C14.4263 17.5227 17.9411 22.4345 21.544 25.9639C23.066 27.4566 24.6028 28.7066 25.8969 29.6625Z" fill="white"/>
<path d="M10.8385 28.9724C5.67315 28.9724 1.4707 23.7047 1.4707 17.2293C1.4707 13.4551 2.8562 10.0171 5.27176 7.79538C7.07265 6.13882 9.26956 5.32382 11.4514 5.51195C11.856 5.5457 12.1565 5.90114 12.1228 6.30612C12.0887 6.71039 11.7325 7.01988 11.3286 6.97679C9.55499 6.83749 7.76163 7.50313 6.26735 8.8775C4.15338 10.8213 2.94129 13.8651 2.94129 17.2293C2.94129 22.8933 6.48384 27.5018 10.8385 27.5018C13.1772 27.5018 15.3882 26.1533 16.9043 23.8017C17.1241 23.4599 17.5782 23.3629 17.9208 23.5819C18.2618 23.8024 18.3602 24.2576 18.1401 24.5987C16.3482 27.3783 13.6867 28.9724 10.8385 28.9724Z" fill="white"/>
<path d="M13.1978 32.6004H8.46971C8.19971 32.6004 7.95162 32.4525 7.82309 32.2155C7.69456 31.9778 7.70641 31.6892 7.85397 31.4637L10.2218 27.8339C10.3575 27.6257 10.5891 27.5 10.8375 27.5C11.0863 27.5 11.3183 27.6257 11.454 27.8346L13.8142 31.4644C13.9611 31.6906 13.9726 31.9785 13.844 32.2155C13.7155 32.4525 13.4674 32.6004 13.1978 32.6004ZM9.8272 31.1298H11.8424L10.8364 29.5824L9.8272 31.1298Z" fill="#D9C18A"/>
<path d="M39.1611 35.958C33.9996 35.958 29.8008 30.6896 29.8008 24.2141C29.8008 17.7394 33.9996 12.4717 39.1611 12.4717C44.3264 12.4717 48.5289 17.7394 48.5289 24.2141C48.5289 30.6896 44.3264 35.958 39.1611 35.958ZM39.1611 13.9423C34.8107 13.9423 31.2714 18.5501 31.2714 24.2141C31.2714 29.8789 34.8107 34.4874 39.1611 34.4874C43.5157 34.4874 47.0583 29.8789 47.0583 24.2141C47.0583 18.5501 43.5157 13.9423 39.1611 13.9423Z" fill="white"/>
<path d="M41.5279 39.586H36.7998C36.5298 39.586 36.2817 39.4381 36.1532 39.2011C36.0246 38.9634 36.0365 38.6748 36.184 38.4486L38.5519 34.8195C38.6876 34.612 38.9191 34.4863 39.1676 34.4863C39.4164 34.4863 39.6483 34.612 39.784 34.8209L42.1443 38.45C42.2912 38.6762 42.3026 38.9642 42.1741 39.2011C42.0456 39.4381 41.7975 39.586 41.5279 39.586ZM38.1576 38.1154H40.1725L39.1665 36.5687L38.1576 38.1154Z" fill="#D9C18A"/>
<path d="M25.1696 30.8397C25.0447 30.8397 24.9197 30.8081 24.807 30.7442C24.6458 30.653 20.8114 28.4622 17.0074 24.7247C12.2075 20.0228 9.66992 14.9469 9.66992 10.0461C9.66992 5.43831 12.9375 2.55745 16.1759 1.74747C19.7098 0.862823 23.1188 2.1302 25.1689 4.9967C26.7587 2.79728 29.3157 1.47246 32.0964 1.47246C36.8072 1.47246 40.6395 5.31839 40.6395 10.0461C40.6395 11.162 40.5124 12.285 40.2618 13.3851C40.1713 13.7815 39.7771 14.0349 39.3815 13.9387C38.9855 13.849 38.7377 13.4547 38.8279 13.0591C39.054 12.0653 39.1689 11.0521 39.1689 10.0461C39.1689 6.1298 35.9962 2.94304 32.0964 2.94304C29.4457 2.94304 27.0412 4.39496 25.8216 6.73153C25.6952 6.97352 25.4457 7.12503 25.1729 7.12647C25.1718 7.12647 25.1707 7.12647 25.1696 7.12647C24.8982 7.12647 24.6487 6.97711 24.5209 6.73728C22.5882 3.1161 19.009 2.55601 16.5328 3.17426C14.0454 3.79682 11.1405 5.96967 11.1405 10.0461C11.1405 15.7267 14.8909 20.593 18.0371 23.6749C21.0454 26.6304 24.1345 28.618 25.1696 29.2492C25.9638 28.7652 27.9643 27.4849 30.1932 25.5878C30.5023 25.3243 30.9662 25.3623 31.2297 25.6711C31.4929 25.9806 31.4555 26.4445 31.146 26.708C28.1632 29.247 25.6374 30.6846 25.5315 30.7442C25.4191 30.8081 25.2946 30.8397 25.1696 30.8397Z" fill="white"/>
<path d="M27.9336 35.1069H22.374C22.104 35.1069 21.8559 34.959 21.7274 34.722C21.5989 34.4843 21.6107 34.1957 21.7583 33.9702L24.5422 29.7021C24.6779 29.4938 24.9095 29.3682 25.1579 29.3682C25.4067 29.3682 25.6387 29.4938 25.7744 29.7028L28.55 33.9709C28.6969 34.1971 28.7084 34.4851 28.5798 34.722C28.4513 34.959 28.2032 35.1069 27.9336 35.1069ZM23.7315 33.6363H26.5782L25.1568 31.4505L23.7315 33.6363Z" fill="#D9C18A"/>
<path d="M24.6194 48.5308C24.5501 48.5308 24.4797 48.5215 24.4101 48.5007C24.0209 48.385 23.7986 47.9758 23.9139 47.5866C24.0166 47.2397 24.1451 46.908 24.2952 46.5985C24.563 46.0456 24.6991 45.4482 24.6991 44.8249C24.6991 44.0049 24.456 43.215 23.9961 42.5408C23.441 41.7207 23.1484 40.77 23.1484 39.7884C23.1484 38.8542 23.412 37.9495 23.911 37.1711C24.2762 36.5988 24.4603 35.9389 24.442 35.2639L24.4201 34.3879C24.4097 33.9815 24.7307 33.644 25.1367 33.6339C25.541 33.626 25.8796 33.9456 25.89 34.3506L25.9119 35.2252C25.9381 36.1938 25.6746 37.1409 25.1497 37.9638C24.8021 38.506 24.619 39.1364 24.619 39.7884C24.619 40.4749 24.8244 41.1405 25.2125 41.7143C25.8383 42.632 26.1697 43.7083 26.1697 44.8249C26.1697 45.6715 25.9841 46.4843 25.6186 47.2405C25.5026 47.4781 25.4039 47.7352 25.3242 48.0045C25.2294 48.324 24.9364 48.5308 24.6194 48.5308Z" fill="white"/>
<path d="M11.3601 48.5303C11.033 48.5303 10.7343 48.3106 10.6485 47.9796C10.6194 47.8668 10.5903 47.7598 10.5497 47.6536L10.1232 46.4523C9.91498 45.8699 9.80907 45.2502 9.80907 44.6112C9.80907 43.7861 10.0001 42.956 10.3613 42.21C10.5824 41.7561 10.6987 41.2549 10.6987 40.7588C10.6987 40.0867 10.4963 39.4332 10.1128 38.8703C9.62991 38.1579 9.375 37.3315 9.375 36.4791C9.375 35.6684 9.60514 34.8764 10.0403 34.1885C10.339 33.721 10.4898 33.1789 10.4779 32.6188L10.4564 31.8828C10.4446 31.4771 10.7637 31.1382 11.1698 31.126C11.5698 31.131 11.9141 31.434 11.9263 31.8397L11.9482 32.5822C11.9661 33.4396 11.7356 34.2661 11.2818 34.9777C10.9967 35.4272 10.8456 35.9478 10.8456 36.4791C10.8456 37.0363 11.0129 37.577 11.3292 38.0438C11.8785 38.8509 12.1693 39.7901 12.1693 40.7588C12.1693 41.4768 12.0017 42.2006 11.6839 42.8519C11.4197 43.3984 11.2797 44.0065 11.2797 44.6112C11.2797 45.0808 11.3565 45.5346 11.5084 45.959L11.9291 47.1452C11.9834 47.2859 12.029 47.4432 12.0724 47.6105C12.174 48.004 11.9378 48.4054 11.5446 48.5066C11.4829 48.5231 11.4211 48.5303 11.3601 48.5303Z" fill="white"/>
<path d="M39.28 48.5016C38.874 48.5016 38.5447 48.2021 38.5447 47.7957C38.5447 47.0626 38.3447 46.412 37.9663 45.8562C37.4834 45.1439 37.2285 44.3174 37.2285 43.4658C37.2285 42.6551 37.4587 41.8624 37.8938 41.1745C38.1939 40.7049 38.3426 40.1656 38.3254 39.6127L38.3096 38.8695C38.3013 38.4638 38.6233 38.1278 39.0294 38.1191H39.0452C39.4441 38.1191 39.7715 38.438 39.7801 38.8394L39.7956 39.5746C39.8218 40.4177 39.5934 41.2463 39.135 41.9636C38.8503 42.4131 38.6991 42.9337 38.6991 43.4658C38.6991 44.0223 38.8664 44.563 39.1827 45.0298C39.727 45.8297 40.0153 46.766 40.0153 47.7368C40.0153 48.1433 39.6861 48.5016 39.28 48.5016Z" fill="white"/>
</svg>
