<svg width="24" height="24" viewBox="0 0 24 24" fill="none" xmlns="http://www.w3.org/2000/svg">
<path d="M19.7147 8.57171C19.7147 12.8403 12.0004 23.1431 12.0004 23.1431C12.0004 23.1431 4.28613 12.8403 4.28613 8.57171C4.28613 6.52575 5.09889 4.56359 6.54559 3.11688C7.9923 1.67017 9.95446 0.857422 12.0004 0.857422C14.0464 0.857422 16.0085 1.67017 17.4552 3.11688C18.902 4.56359 19.7147 6.52575 19.7147 8.57171V8.57171Z" stroke="#D9C18A" stroke-width="1.5" stroke-linecap="round" stroke-linejoin="round"/>
<path d="M12.0011 11.1429C13.4213 11.1429 14.5725 9.99159 14.5725 8.57143C14.5725 7.15127 13.4213 6 12.0011 6C10.581 6 9.42969 7.15127 9.42969 8.57143C9.42969 9.99159 10.581 11.1429 12.0011 11.1429Z" stroke="#D9C18A" stroke-width="1.5" stroke-linecap="round" stroke-linejoin="round"/>
</svg>
