<svg width="50" height="50" viewBox="0 0 50 50" fill="none" xmlns="http://www.w3.org/2000/svg">
<path d="M30.0087 48.5306C29.6027 48.5306 29.2734 48.2018 29.2734 47.7954C29.2734 47.3889 29.6027 47.0601 30.0087 47.0601C37.6381 47.0601 43.8454 40.8531 43.8454 33.223C43.8454 26.3332 38.7059 20.4416 31.8908 19.5181C31.4883 19.4636 31.2065 19.093 31.261 18.6909C31.3156 18.2881 31.689 18.0059 32.0882 18.0605C39.6293 19.0823 45.316 25.6008 45.316 33.223C45.316 41.6638 38.4492 48.5306 30.0087 48.5306Z" fill="#D9C18A"/>
<path d="M15.4374 33.9582C15.0314 33.9582 14.7021 33.6293 14.7021 33.2229C14.7021 25.6294 20.3615 19.1144 27.866 18.0689C28.2695 18.0072 28.6397 18.293 28.6957 18.6958C28.7517 19.0979 28.4713 19.4692 28.0692 19.5252C21.2871 20.4701 16.1727 26.359 16.1727 33.2229C16.1727 33.6293 15.8435 33.9582 15.4374 33.9582Z" fill="#D9C18A"/>
<path d="M30.0097 45.4467C29.6036 45.4467 29.2744 45.1178 29.2744 44.7114C29.2744 44.3049 29.6036 43.9761 30.0097 43.9761C35.9395 43.9761 40.7634 39.1521 40.7634 33.2224C40.7634 28.657 37.8649 24.5791 33.5505 23.074C33.167 22.9405 32.9649 22.5211 33.0984 22.1377C33.2327 21.7535 33.6503 21.5503 34.0352 21.6853C38.9392 23.3965 42.234 28.0323 42.234 33.2224C42.234 39.9628 36.7501 45.4467 30.0097 45.4467Z" fill="#D9C18A"/>
<path d="M18.5195 33.9583C18.1134 33.9583 17.7842 33.6295 17.7842 33.223C17.7842 26.4819 23.2684 20.998 30.0092 20.998C30.0982 20.998 30.1862 21.0002 30.2763 21.0138C30.6784 21.072 30.957 21.4447 30.8988 21.8468C30.8407 22.2482 30.4687 22.5282 30.0698 22.4694C30.0698 22.4694 30.0691 22.4694 30.0688 22.4694C24.078 22.4694 19.2548 27.2933 19.2548 33.223C19.2548 33.6295 18.9255 33.9583 18.5195 33.9583Z" fill="#D9C18A"/>
<path d="M18.0121 42.2266C17.9791 42.2266 17.9457 42.2245 17.9123 42.2202C10.3713 41.1977 4.68457 34.6791 4.68457 27.0569C4.68457 18.6168 11.5514 11.75 19.9918 11.75C25.0215 11.75 29.733 14.2252 32.5949 18.3712C33.3977 19.5223 34.036 20.7933 34.4898 22.1461C35.0266 23.7158 35.2994 25.3695 35.2994 27.0569C35.2994 34.6504 29.6401 41.1654 22.1356 42.2109C21.7338 42.2683 21.3615 41.9875 21.3059 41.584C21.2499 41.1819 21.5303 40.8106 21.9324 40.7546C28.7145 39.8097 33.8289 33.9208 33.8289 27.0569C33.8289 25.5317 33.5826 24.0382 33.0968 22.6178C32.6861 21.3936 32.1113 20.2482 31.3867 19.2099C28.7974 15.4588 24.5382 13.2206 19.9918 13.2206C12.3624 13.2206 6.15516 19.4275 6.15516 27.0569C6.15516 33.9467 11.2947 39.8384 18.1098 40.7625C18.5123 40.8171 18.7941 41.1876 18.7395 41.5904C18.6896 41.9588 18.374 42.2266 18.0121 42.2266Z" fill="white"/>
<path d="M19.9918 39.283C19.8999 39.283 19.808 39.2801 19.715 39.265C19.3136 39.2018 19.0404 38.8249 19.104 38.4235C19.1675 38.0256 19.5384 37.7506 19.9376 37.8117C25.9227 37.8117 30.7462 32.987 30.7462 27.0573C30.7462 25.3174 30.3226 23.5984 29.5216 22.0847C28.9884 21.0607 28.2948 20.1344 27.4572 19.3259C25.4473 17.3764 22.7966 16.3036 19.9918 16.3036C14.0621 16.3036 9.23817 21.1275 9.23817 27.0573C9.23817 31.6292 12.1395 35.707 16.4572 37.2056C16.753 37.3083 16.9516 37.5869 16.9516 37.9C16.9516 38.3064 16.6223 38.6396 16.2163 38.6396C16.1017 38.6396 15.9933 38.613 15.8967 38.5671C11.0312 36.8416 7.76758 32.2266 7.76758 27.0573C7.76758 20.3168 13.2514 14.833 19.9918 14.833C23.1807 14.833 26.1952 16.053 28.4797 18.2689C29.4304 19.1866 30.2195 20.2407 30.8238 21.4011C31.7343 23.1216 32.2168 25.079 32.2168 27.0573C32.2168 33.7984 26.7326 39.283 19.9918 39.283Z" fill="white"/>
<path d="M22.8356 13.4985C22.6148 13.4985 22.3965 13.3994 22.2514 13.2105L21.342 12.0236C21.1578 11.783 21.1399 11.4542 21.2971 11.1949L22.0084 10.0209C21.6213 10.0001 21.314 9.67911 21.314 9.28705C21.314 8.88063 21.6432 8.55176 22.0493 8.55176H23.3131C23.5784 8.55176 23.8233 8.69465 23.9536 8.92587C24.0839 9.1578 24.0796 9.44143 23.9417 9.66834L22.8151 11.5274L23.419 12.3158C23.666 12.6382 23.6046 13.1 23.2826 13.347C23.149 13.4489 22.9917 13.4985 22.8356 13.4985Z" fill="white"/>
<path d="M17.7691 13.2041L17.1796 12.7632L16.6263 12.2792L17.1839 11.5561L16.0418 9.66762C15.9043 9.44072 15.9 9.15708 16.0303 8.92587C16.1607 8.69465 16.4055 8.55176 16.6708 8.55176H17.7576C18.1637 8.55176 18.4929 8.88063 18.4929 9.28705C18.4929 9.62382 18.2667 9.90746 17.958 9.99434L18.7026 11.2258C18.8598 11.4858 18.8412 11.8153 18.6556 12.0559L17.7691 13.2041Z" fill="white"/>
<path d="M22.0494 10.0229H17.7568C17.5479 10.0229 17.3486 9.93387 17.2089 9.77805L13.7802 5.94863C13.5095 5.64633 13.535 5.18102 13.8376 4.91031C14.1403 4.63889 14.6049 4.66546 14.8759 4.96776L18.0853 8.55232H21.7316L25.1202 4.95412C25.3988 4.65827 25.8637 4.64391 26.1596 4.92324C26.455 5.20113 26.469 5.66643 26.1908 5.96227L22.5847 9.79169C22.4457 9.93889 22.2522 10.0229 22.0494 10.0229Z" fill="white"/>
<path d="M25.6555 6.19339H14.3281C14.0254 6.19339 13.7536 6.00813 13.6434 5.72593C13.5332 5.44445 13.6064 5.1242 13.8287 4.91811L17.3429 1.66602C17.4789 1.54036 17.657 1.4707 17.8423 1.4707H22.1413C22.3266 1.4707 22.5046 1.54036 22.6407 1.66602L26.1549 4.91811C26.3771 5.1242 26.4504 5.44445 26.3402 5.72593C26.2299 6.00813 25.9582 6.19339 25.6555 6.19339ZM16.2051 4.7228H23.7785L21.8534 2.94129H18.1302L16.2051 4.7228Z" fill="white"/>
<path d="M30.0094 48.5302C24.9801 48.5302 20.2689 46.0551 17.4067 41.909C16.5889 40.7242 15.9537 39.4525 15.5179 38.1298C14.9779 36.5752 14.7021 34.9208 14.7021 33.2226C14.7021 32.8162 15.0314 32.4873 15.4374 32.4873C15.8435 32.4873 16.1727 32.8162 16.1727 33.2226C16.1727 34.7557 16.4212 36.2485 16.9109 37.6588C17.3066 38.8594 17.8792 40.004 18.617 41.0732C21.2045 44.8214 25.4634 47.0596 30.0094 47.0596C30.4155 47.0596 30.7447 47.3885 30.7447 47.7949C30.7447 48.2013 30.4155 48.5302 30.0094 48.5302Z" fill="#D9C18A"/>
<path d="M30.0092 45.4469C26.8203 45.4469 23.8062 44.2269 21.5217 42.0117C20.5717 41.0947 19.7829 40.0406 19.1779 38.8795C18.2667 37.159 17.7842 35.2016 17.7842 33.2226C17.7842 32.8162 18.1134 32.4873 18.5195 32.4873C18.9255 32.4873 19.2548 32.8162 19.2548 33.2226C19.2548 34.9625 19.6784 36.6822 20.4798 38.1959C21.0137 39.2206 21.7073 40.1469 22.5442 40.9547C24.5541 42.9035 27.2044 43.9763 30.0092 43.9763C30.4152 43.9763 30.7445 44.3051 30.7445 44.7116C30.7445 45.118 30.4152 45.4469 30.0092 45.4469Z" fill="#D9C18A"/>
</svg>
