<svg width="20" height="20" viewBox="0 0 20 20" fill="none" xmlns="http://www.w3.org/2000/svg">
<g clip-path="url(#clip0_632_903)">
<path d="M10.0006 19.2853C15.1289 19.2853 19.2863 15.1279 19.2863 9.99958C19.2863 4.87122 15.1289 0.713867 10.0006 0.713867C4.8722 0.713867 0.714844 4.87122 0.714844 9.99958C0.714844 15.1279 4.8722 19.2853 10.0006 19.2853Z" stroke="#D9C18A" stroke-width="1.5" stroke-linecap="round" stroke-linejoin="round"/>
<path d="M0.714844 10H19.2863" stroke="#D9C18A" stroke-width="1.5" stroke-linecap="round" stroke-linejoin="round"/>
<path d="M13.5725 9.99958C13.3971 13.3953 12.1464 16.6472 10.0011 19.2853C7.85586 16.6472 6.60511 13.3953 6.42969 9.99958C6.60511 6.60388 7.85586 3.35194 10.0011 0.713867C12.1464 3.35194 13.3971 6.60388 13.5725 9.99958V9.99958Z" stroke="#D9C18A" stroke-width="1.5" stroke-linecap="round" stroke-linejoin="round"/>
</g>
<defs>
<clipPath id="clip0_632_903">
<rect width="20" height="20" fill="white"/>
</clipPath>
</defs>
</svg>
