<svg width="50" height="50" viewBox="0 0 50 50" fill="none" xmlns="http://www.w3.org/2000/svg">
<path d="M30.0087 48.5306C29.6027 48.5306 29.2734 48.2018 29.2734 47.7954C29.2734 47.3889 29.6027 47.0601 30.0087 47.0601C37.6381 47.0601 43.8454 40.8531 43.8454 33.223C43.8454 26.3332 38.7059 20.4416 31.8908 19.5181C31.4883 19.4636 31.2065 19.093 31.261 18.6909C31.3156 18.2881 31.689 18.0059 32.0882 18.0605C39.6293 19.0823 45.316 25.6008 45.316 33.223C45.316 41.6638 38.4492 48.5306 30.0087 48.5306Z" fill="#D9C18A"/>
<path d="M15.4384 33.9582C15.0324 33.9582 14.7031 33.6293 14.7031 33.2229C14.7031 25.6294 20.3625 19.1144 27.867 18.0689C28.2705 18.0072 28.6407 18.293 28.6967 18.6958C28.7527 19.0979 28.4723 19.4692 28.0702 19.5252C21.2881 20.4701 16.1737 26.359 16.1737 33.2229C16.1737 33.6293 15.8445 33.9582 15.4384 33.9582Z" fill="#D9C18A"/>
<path d="M30.0087 45.4467C29.6027 45.4467 29.2734 45.1178 29.2734 44.7114C29.2734 44.3049 29.6027 43.9761 30.0087 43.9761C35.9385 43.9761 40.7624 39.1521 40.7624 33.2224C40.7624 28.657 37.864 24.5791 33.5495 23.074C33.166 22.9405 32.9639 22.5211 33.0975 22.1377C33.2317 21.7535 33.6493 21.5503 34.0342 21.6853C38.9382 23.3965 42.233 28.0323 42.233 33.2224C42.233 39.9628 36.7492 45.4467 30.0087 45.4467Z" fill="#D9C18A"/>
<path d="M18.5165 33.9583C18.1105 33.9583 17.7812 33.6295 17.7812 33.223C17.7812 26.4819 23.2654 20.998 30.0062 20.998C30.0953 20.998 30.1832 21.0002 30.2734 21.0138C30.6755 21.072 30.9541 21.4447 30.8959 21.8468C30.8377 22.2482 30.4658 22.5282 30.0669 22.4694C30.0669 22.4694 30.0662 22.4694 30.0658 22.4694C24.0751 22.4694 19.2518 27.2933 19.2518 33.223C19.2518 33.6295 18.9226 33.9583 18.5165 33.9583Z" fill="#D9C18A"/>
<path d="M18.0112 42.2266C17.9781 42.2266 17.9447 42.2245 17.9113 42.2202C10.3703 41.1977 4.68359 34.6791 4.68359 27.0569C4.68359 18.6168 11.5504 11.75 19.9909 11.75C25.0205 11.75 29.7321 14.2252 32.5939 18.3712C33.3967 19.5223 34.035 20.7933 34.4889 22.1461C35.0256 23.7158 35.2985 25.3695 35.2985 27.0569C35.2985 34.6504 29.6391 41.1654 22.1346 42.2109C21.7329 42.2683 21.3606 41.9875 21.3049 41.584C21.2489 41.1819 21.5293 40.8106 21.9314 40.7546C28.7135 39.8097 33.8279 33.9208 33.8279 27.0569C33.8279 25.5317 33.5816 24.0382 33.0958 22.6178C32.6851 21.3936 32.1103 20.2482 31.3858 19.2099C28.7964 15.4588 24.5373 13.2206 19.9909 13.2206C12.3615 13.2206 6.15418 19.4275 6.15418 27.0569C6.15418 33.9467 11.2937 39.8384 18.1088 40.7625C18.5113 40.8171 18.7931 41.1876 18.7386 41.5904C18.6886 41.9588 18.3731 42.2266 18.0112 42.2266Z" fill="white"/>
<path d="M19.9899 39.283C19.898 39.283 19.8061 39.2801 19.7131 39.265C19.3117 39.2018 19.0385 38.8249 19.102 38.4235C19.1656 38.0256 19.5364 37.7506 19.9357 37.8117C25.9207 37.8117 30.7443 32.987 30.7443 27.0573C30.7443 25.3174 30.3206 23.5984 29.5196 22.0847C28.9865 21.0607 28.2928 20.1344 27.4552 19.3259C25.4454 17.3764 22.7946 16.3036 19.9899 16.3036C14.0601 16.3036 9.23621 21.1275 9.23621 27.0573C9.23621 31.6292 12.1375 35.707 16.4552 37.2056C16.7511 37.3083 16.9496 37.5869 16.9496 37.9C16.9496 38.3064 16.6204 38.6396 16.2143 38.6396C16.0998 38.6396 15.9914 38.613 15.8948 38.5671C11.0292 36.8416 7.76562 32.2266 7.76562 27.0573C7.76562 20.3168 13.2495 14.833 19.9899 14.833C23.1788 14.833 26.1932 16.053 28.4777 18.2689C29.4284 19.1866 30.2176 20.2407 30.8218 21.4011C31.7323 23.1216 32.2149 25.079 32.2149 27.0573C32.2149 33.7984 26.7307 39.283 19.9899 39.283Z" fill="white"/>
<path d="M22.8326 13.4985C22.6118 13.4985 22.3935 13.3994 22.2485 13.2105L21.3391 12.0236C21.1549 11.783 21.1369 11.4542 21.2942 11.1949L22.0054 10.0209C21.6184 10.0001 21.3111 9.67911 21.3111 9.28705C21.3111 8.88063 21.6403 8.55176 22.0464 8.55176H23.3101C23.5755 8.55176 23.8203 8.69465 23.9506 8.92587C24.081 9.1578 24.0767 9.44143 23.9388 9.66834L22.8122 11.5274L23.4161 12.3158C23.6631 12.6382 23.6017 13.1 23.2796 13.347C23.1461 13.4489 22.9888 13.4985 22.8326 13.4985Z" fill="white"/>
<path d="M17.7672 13.2041L17.1776 12.7632L16.6244 12.2792L17.1819 11.5561L16.0399 9.66762C15.9024 9.44072 15.898 9.15708 16.0284 8.92587C16.1587 8.69465 16.4036 8.55176 16.6689 8.55176H17.7557C18.1617 8.55176 18.491 8.88063 18.491 9.28705C18.491 9.62382 18.2648 9.90746 17.956 9.99434L18.7006 11.2258C18.8579 11.4858 18.8392 11.8153 18.6536 12.0559L17.7672 13.2041Z" fill="white"/>
<path d="M22.0504 10.0229H17.7578C17.5488 10.0229 17.3496 9.93387 17.2099 9.77805L13.7812 5.94863C13.5105 5.64633 13.5359 5.18102 13.8386 4.91031C14.1413 4.63889 14.6059 4.66546 14.8769 4.96776L18.0863 8.55232H21.7326L25.1211 4.95412C25.3997 4.65827 25.8647 4.64391 26.1605 4.92324C26.456 5.20113 26.47 5.66643 26.1918 5.96227L22.5857 9.79169C22.4467 9.93889 22.2532 10.0229 22.0504 10.0229Z" fill="white"/>
<path d="M25.6565 6.19339H14.3291C14.0264 6.19339 13.7546 6.00813 13.6444 5.72593C13.5342 5.44445 13.6074 5.1242 13.8297 4.91811L17.3438 1.66602C17.4799 1.54036 17.658 1.4707 17.8433 1.4707H22.1423C22.3275 1.4707 22.5056 1.54036 22.6417 1.66602L26.1559 4.91811C26.3781 5.1242 26.4514 5.44445 26.3411 5.72593C26.2309 6.00813 25.9591 6.19339 25.6565 6.19339ZM16.2061 4.7228H23.7795L21.8543 2.94129H18.1312L16.2061 4.7228Z" fill="white"/>
<path d="M30.0104 48.5302C24.9811 48.5302 20.2699 46.0551 17.4077 41.909C16.5898 40.7242 15.9547 39.4525 15.5188 38.1298C14.9789 36.5752 14.7031 34.9208 14.7031 33.2226C14.7031 32.8162 15.0324 32.4873 15.4384 32.4873C15.8445 32.4873 16.1737 32.8162 16.1737 33.2226C16.1737 34.7557 16.4222 36.2485 16.9119 37.6588C17.3075 38.8594 17.8802 40.004 18.618 41.0732C21.2055 44.8214 25.4643 47.0596 30.0104 47.0596C30.4164 47.0596 30.7457 47.3885 30.7457 47.7949C30.7457 48.2013 30.4164 48.5302 30.0104 48.5302Z" fill="#D9C18A"/>
<path d="M30.0062 45.4469C26.8173 45.4469 23.8033 44.2269 21.5188 42.0117C20.5688 41.0947 19.78 40.0406 19.175 38.8795C18.2638 37.159 17.7812 35.2016 17.7812 33.2226C17.7812 32.8162 18.1105 32.4873 18.5165 32.4873C18.9226 32.4873 19.2518 32.8162 19.2518 33.2226C19.2518 34.9625 19.6755 36.6822 20.4768 38.1959C21.0107 39.2206 21.7044 40.1469 22.5413 40.9547C24.5511 42.9035 27.2015 43.9763 30.0062 43.9763C30.4123 43.9763 30.7415 44.3051 30.7415 44.7116C30.7415 45.118 30.4123 45.4469 30.0062 45.4469Z" fill="#D9C18A"/>
</svg>
