<svg width="45" height="36" viewBox="0 0 45 36" fill="none" xmlns="http://www.w3.org/2000/svg">
<path d="M4.04494 33.0882C1.51685 30.1765 0 27 0 21.7059C0 12.4412 6.32023 4.23529 15.1685 0L17.4438 3.44118C9.10112 8.20588 7.33146 14.2941 6.82584 18.2647C8.08989 17.4706 9.85955 17.2059 11.6292 17.4706C16.1798 18 19.7191 21.7059 19.7191 26.7353C19.7191 29.1176 18.7079 31.5 17.191 33.3529C15.4213 35.2059 13.3989 36 10.8708 36C8.08989 36 5.5618 34.6765 4.04494 33.0882ZM29.3258 33.0882C26.7978 30.1765 25.2809 27 25.2809 21.7059C25.2809 12.4412 31.6011 4.23529 40.4494 0L42.7247 3.44118C34.382 8.20588 32.6124 14.2941 32.1067 18.2647C33.3708 17.4706 35.1405 17.2059 36.9101 17.4706C41.4607 18 45 21.7059 45 26.7353C45 29.1176 43.9888 31.5 42.4719 33.3529C40.9551 35.2059 38.6798 36 36.1517 36C33.3708 36 30.8427 34.6765 29.3258 33.0882Z" fill="#080808"/>
</svg>
