<svg width="20" height="20" viewBox="0 0 20 20" fill="none" xmlns="http://www.w3.org/2000/svg">
<g clip-path="url(#clip0_632_916)">
<path d="M9.81529 13.571C13.3657 13.571 16.2439 10.6928 16.2439 7.14244C16.2439 3.59204 13.3657 0.713867 9.81529 0.713867C6.26489 0.713867 3.38672 3.59204 3.38672 7.14244C3.38672 10.6928 6.26489 13.571 9.81529 13.571Z" stroke="#D9C18A" stroke-width="1.5" stroke-linecap="round" stroke-linejoin="round"/>
<path d="M9.81417 9.99944C11.3921 9.99944 12.6713 8.72026 12.6713 7.1423C12.6713 5.56434 11.3921 4.28516 9.81417 4.28516C8.23622 4.28516 6.95703 5.56434 6.95703 7.1423C6.95703 8.72026 8.23622 9.99944 9.81417 9.99944Z" stroke="#D9C18A" stroke-width="1.5" stroke-linecap="round" stroke-linejoin="round"/>
<path d="M8.57086 13.4563L7.31372 18.742C7.28884 18.8425 7.24285 18.9365 7.1788 19.0178C7.11476 19.099 7.03413 19.1658 6.94229 19.2134C6.84536 19.2555 6.74082 19.2772 6.63515 19.2772C6.52948 19.2772 6.42494 19.2555 6.328 19.2134L1.58515 17.142C1.48566 17.095 1.39812 17.026 1.3291 16.9403C1.26008 16.8546 1.21137 16.7544 1.18663 16.6472C1.16188 16.5399 1.16175 16.4285 1.18623 16.3212C1.21072 16.2139 1.25919 16.1136 1.328 16.0277L4.99943 11.4277" stroke="#D9C18A" stroke-width="1.5" stroke-linecap="round" stroke-linejoin="round"/>
<path d="M11.4297 13.3848L12.7154 18.742C12.741 18.8441 12.7888 18.9394 12.8555 19.0209C12.9222 19.1024 13.006 19.1681 13.1011 19.2134C13.1954 19.256 13.2977 19.278 13.4011 19.278C13.5046 19.278 13.6068 19.256 13.7011 19.2134L18.4154 17.142C18.5164 17.0955 18.6051 17.0261 18.6746 16.9393C18.744 16.8525 18.7922 16.7507 18.8154 16.642C18.8425 16.5356 18.8436 16.4243 18.8188 16.3174C18.7939 16.2105 18.7438 16.1112 18.6725 16.0277L14.844 11.1562" stroke="#D9C18A" stroke-width="1.5" stroke-linecap="round" stroke-linejoin="round"/>
</g>
<defs>
<clipPath id="clip0_632_916">
<rect width="20" height="20" fill="white"/>
</clipPath>
</defs>
</svg>
