<svg width="50" height="50" viewBox="0 0 50 50" fill="none" xmlns="http://www.w3.org/2000/svg">
<path d="M25.895 29.6625C25.4318 29.9492 25.167 30.1037 25.167 30.1037C25.167 30.1037 21.2994 27.9125 17.52 24.1992C13.917 20.6698 10.4023 15.7581 10.4023 10.0448C10.4023 3.38676 18.2226 -0.206316 23.2553 4.03747C18.7256 3.4199 14.4244 6.98536 14.4244 11.8095C14.4244 17.5227 17.9391 22.4345 21.5421 25.9639C23.0641 27.4566 24.6008 28.7066 25.895 29.6625Z" fill="white"/>
<path d="M10.8366 28.9724C5.6712 28.9724 1.46875 23.7047 1.46875 17.2293C1.46875 13.4551 2.85425 10.0171 5.2698 7.79538C7.0707 6.13882 9.26761 5.32382 11.4494 5.51195C11.8541 5.5457 12.1546 5.90114 12.1208 6.30612C12.0867 6.71039 11.7306 7.01988 11.3266 6.97679C9.55304 6.83749 7.75968 7.50313 6.2654 8.8775C4.15142 10.8213 2.93934 13.8651 2.93934 17.2293C2.93934 22.8933 6.48189 27.5018 10.8366 27.5018C13.1753 27.5018 15.3862 26.1533 16.9024 23.8017C17.1221 23.4599 17.5763 23.3629 17.9188 23.5819C18.2599 23.8024 18.3583 24.2576 18.1382 24.5987C16.3462 27.3783 13.6848 28.9724 10.8366 28.9724Z" fill="white"/>
<path d="M13.1978 32.6004H8.46971C8.19971 32.6004 7.95162 32.4525 7.82309 32.2155C7.69456 31.9778 7.70641 31.6892 7.85397 31.4637L10.2218 27.8339C10.3575 27.6257 10.5891 27.5 10.8375 27.5C11.0863 27.5 11.3183 27.6257 11.454 27.8346L13.8142 31.4644C13.9611 31.6906 13.9726 31.9785 13.844 32.2155C13.7155 32.4525 13.4674 32.6004 13.1978 32.6004ZM9.8272 31.1298H11.8424L10.8364 29.5824L9.8272 31.1298Z" fill="#D9C18A"/>
<path d="M39.1572 35.958C33.9957 35.958 29.7969 30.6896 29.7969 24.2141C29.7969 17.7394 33.9957 12.4717 39.1572 12.4717C44.3225 12.4717 48.525 17.7394 48.525 24.2141C48.525 30.6896 44.3225 35.958 39.1572 35.958ZM39.1572 13.9423C34.8068 13.9423 31.2675 18.5501 31.2675 24.2141C31.2675 29.8789 34.8068 34.4874 39.1572 34.4874C43.5118 34.4874 47.0544 29.8789 47.0544 24.2141C47.0544 18.5501 43.5118 13.9423 39.1572 13.9423Z" fill="white"/>
<path d="M41.5259 39.586H36.7978C36.5278 39.586 36.2797 39.4381 36.1512 39.2011C36.0227 38.9634 36.0345 38.6748 36.1821 38.4486L38.5499 34.8195C38.6856 34.612 38.9172 34.4863 39.1656 34.4863C39.4144 34.4863 39.6464 34.612 39.7821 34.8209L42.1424 38.45C42.2892 38.6762 42.3007 38.9642 42.1722 39.2011C42.0436 39.4381 41.7955 39.586 41.5259 39.586ZM38.1557 38.1154H40.1706L39.1646 36.5687L38.1557 38.1154Z" fill="#D9C18A"/>
<path d="M25.1677 30.8397C25.0427 30.8397 24.9178 30.8081 24.805 30.7442C24.6438 30.653 20.8094 28.4622 17.0055 24.7247C12.2056 20.0228 9.66797 14.9469 9.66797 10.0461C9.66797 5.43831 12.9355 2.55745 16.174 1.74747C19.7079 0.862823 23.1169 2.1302 25.167 4.9967C26.7567 2.79728 29.3138 1.47246 32.0944 1.47246C36.8053 1.47246 40.6376 5.31839 40.6376 10.0461C40.6376 11.162 40.5105 12.285 40.2599 13.3851C40.1694 13.7815 39.7752 14.0349 39.3795 13.9387C38.9835 13.849 38.7358 13.4547 38.8259 13.0591C39.0521 12.0653 39.167 11.0521 39.167 10.0461C39.167 6.1298 35.9942 2.94304 32.0944 2.94304C29.4437 2.94304 27.0393 4.39496 25.8197 6.73153C25.6933 6.97352 25.4438 7.12503 25.1709 7.12647C25.1698 7.12647 25.1687 7.12647 25.1677 7.12647C24.8962 7.12647 24.6467 6.97711 24.5189 6.73728C22.5862 3.1161 19.0071 2.55601 16.5308 3.17426C14.0435 3.79682 11.1386 5.96967 11.1386 10.0461C11.1386 15.7267 14.889 20.593 18.0352 23.6749C21.0435 26.6304 24.1326 28.618 25.1677 29.2492C25.9618 28.7652 27.9624 27.4849 30.1912 25.5878C30.5003 25.3243 30.9642 25.3623 31.2277 25.6711C31.4909 25.9806 31.4536 26.4445 31.1441 26.708C28.1613 29.247 25.6355 30.6846 25.5296 30.7442C25.4172 30.8081 25.2926 30.8397 25.1677 30.8397Z" fill="white"/>
<path d="M27.9316 35.1069H22.372C22.1021 35.1069 21.854 34.959 21.7254 34.722C21.5969 34.4843 21.6088 34.1957 21.7563 33.9702L24.5402 29.7021C24.6759 29.4938 24.9075 29.3682 25.156 29.3682C25.4048 29.3682 25.6367 29.4938 25.7724 29.7028L28.5481 33.9709C28.6949 34.1971 28.7064 34.4851 28.5779 34.722C28.4494 34.959 28.2013 35.1069 27.9316 35.1069ZM23.7295 33.6363H26.5763L25.1549 31.4505L23.7295 33.6363Z" fill="#D9C18A"/>
<path d="M24.6194 48.5308C24.5501 48.5308 24.4797 48.5215 24.4101 48.5007C24.0209 48.385 23.7986 47.9758 23.9139 47.5866C24.0166 47.2397 24.1451 46.908 24.2952 46.5985C24.563 46.0456 24.6991 45.4482 24.6991 44.8249C24.6991 44.0049 24.456 43.215 23.9961 42.5408C23.441 41.7207 23.1484 40.77 23.1484 39.7884C23.1484 38.8542 23.412 37.9495 23.911 37.1711C24.2762 36.5988 24.4603 35.9389 24.442 35.2639L24.4201 34.3879C24.4097 33.9815 24.7307 33.644 25.1367 33.6339C25.541 33.626 25.8796 33.9456 25.89 34.3506L25.9119 35.2252C25.9381 36.1938 25.6746 37.1409 25.1497 37.9638C24.8021 38.506 24.619 39.1364 24.619 39.7884C24.619 40.4749 24.8244 41.1405 25.2125 41.7143C25.8383 42.632 26.1697 43.7083 26.1697 44.8249C26.1697 45.6715 25.9841 46.4843 25.6186 47.2405C25.5026 47.4781 25.4039 47.7352 25.3242 48.0045C25.2294 48.324 24.9364 48.5308 24.6194 48.5308Z" fill="white"/>
<path d="M11.3601 48.5303C11.033 48.5303 10.7343 48.3106 10.6485 47.9796C10.6194 47.8668 10.5903 47.7598 10.5497 47.6536L10.1232 46.4523C9.91498 45.8699 9.80907 45.2502 9.80907 44.6112C9.80907 43.7861 10.0001 42.956 10.3613 42.21C10.5824 41.7561 10.6987 41.2549 10.6987 40.7588C10.6987 40.0867 10.4963 39.4332 10.1128 38.8703C9.62991 38.1579 9.375 37.3315 9.375 36.4791C9.375 35.6684 9.60514 34.8764 10.0403 34.1885C10.339 33.721 10.4898 33.1789 10.4779 32.6188L10.4564 31.8828C10.4446 31.4771 10.7637 31.1382 11.1698 31.126C11.5698 31.131 11.9141 31.434 11.9263 31.8397L11.9482 32.5822C11.9661 33.4396 11.7356 34.2661 11.2818 34.9777C10.9967 35.4272 10.8456 35.9478 10.8456 36.4791C10.8456 37.0363 11.0129 37.577 11.3292 38.0438C11.8785 38.8509 12.1693 39.7901 12.1693 40.7588C12.1693 41.4768 12.0017 42.2006 11.6839 42.8519C11.4197 43.3984 11.2797 44.0065 11.2797 44.6112C11.2797 45.0808 11.3565 45.5346 11.5084 45.959L11.9291 47.1452C11.9834 47.2859 12.029 47.4432 12.0724 47.6105C12.174 48.004 11.9378 48.4054 11.5446 48.5066C11.4829 48.5231 11.4211 48.5303 11.3601 48.5303Z" fill="white"/>
<path d="M39.2781 48.5016C38.872 48.5016 38.5428 48.2021 38.5428 47.7957C38.5428 47.0626 38.3428 46.412 37.9644 45.8562C37.4815 45.1439 37.2266 44.3174 37.2266 43.4658C37.2266 42.6551 37.4567 41.8624 37.8918 41.1745C38.192 40.7049 38.3406 40.1656 38.3234 39.6127L38.3076 38.8695C38.2993 38.4638 38.6214 38.1278 39.0275 38.1191H39.0433C39.4421 38.1191 39.7696 38.438 39.7782 38.8394L39.7936 39.5746C39.8198 40.4177 39.5915 41.2463 39.133 41.9636C38.8483 42.4131 38.6972 42.9337 38.6972 43.4658C38.6972 44.0223 38.8645 44.563 39.1808 45.0298C39.7251 45.8297 40.0134 46.766 40.0134 47.7368C40.0134 48.1433 39.6841 48.5016 39.2781 48.5016Z" fill="white"/>
</svg>
