<svg width="50" height="50" viewBox="0 0 50 50" fill="none" xmlns="http://www.w3.org/2000/svg">
<path d="M20.5016 24.0871C20.5016 28.8444 22.6413 31.6827 22.7736 31.8591C22.406 31.6827 16.5898 28.8444 16.5898 24.0871C16.5898 22.2709 18.0678 20.793 19.8839 20.793C20.3618 20.793 20.8104 20.8959 21.2221 21.0797C20.7957 21.5945 20.5016 22.7489 20.5016 24.0871Z" fill="white"/>
<path d="M28.9782 24.0871C28.9782 28.9989 22.7871 31.8665 22.7871 31.8665C22.9194 31.6827 25.0592 28.8444 25.0592 24.0871C25.0592 22.7489 24.765 21.5945 24.3459 21.0797C24.7576 20.8959 25.2136 20.793 25.6915 20.793C27.5076 20.793 28.9782 22.2709 28.9782 24.0871Z" fill="white"/>
<path d="M17.7743 19.0084C16.4322 19.0084 15.0525 18.299 14.268 17.0481C14.1474 16.8585 14.082 16.6331 14.082 16.4004C14.082 16.0737 14.2242 15.7606 14.4719 15.5416L30.0456 3.66416C30.81 3.00355 31.8662 2.68473 32.9778 2.78598L43.4109 3.76326C43.4776 3.76972 43.5394 3.76182 43.5976 3.74028L46.5876 1.60692C46.9182 1.37211 47.3778 1.44823 47.613 1.77854C47.8488 2.10956 47.772 2.5684 47.4413 2.80465L44.3914 4.98037C44.3598 5.00263 44.326 5.02273 44.2908 5.04069C43.9753 5.19651 43.6205 5.26041 43.2716 5.22738L32.8406 4.25082C32.1291 4.18332 31.4641 4.38151 30.9715 4.80588L15.6632 16.4801C16.4258 17.4696 17.7782 17.8286 18.7983 17.2764L27.0825 13.6208L28.6946 12.7412C29.0518 12.5459 29.4984 12.678 29.692 13.0356C29.8862 13.3917 29.7541 13.8384 29.3975 14.0322L27.7306 14.9392L19.4449 18.5955C18.9293 18.8756 18.3552 19.0084 17.7743 19.0084Z" fill="white"/>
<path d="M2.98796 48.5294C2.75818 48.5294 2.53199 48.4224 2.38874 48.2213C2.15286 47.8903 2.22969 47.4315 2.56036 47.1952L5.61032 45.0195C5.64191 44.9972 5.6753 44.9771 5.71049 44.9599C6.02356 44.8041 6.37505 44.7395 6.72654 44.7718L17.1592 45.7483C17.8748 45.8173 18.5361 45.6191 19.0284 45.194L34.3353 33.5183C33.5723 32.5303 32.2202 32.172 31.2013 32.722L22.9177 36.3791L21.3057 37.2587C20.9485 37.454 20.5025 37.3212 20.3083 36.9643C20.1141 36.6081 20.2462 36.1615 20.6027 35.9676L22.2693 35.0607L30.5543 31.4029C32.2586 30.4773 34.6056 31.1581 35.7308 32.9511C35.8514 33.1399 35.9164 33.3654 35.9164 33.598C35.9164 33.9269 35.7735 34.2407 35.5244 34.459L19.9543 46.3357C19.1903 46.9963 18.138 47.3173 17.0221 47.2132L6.58975 46.2366C6.52621 46.2301 6.46266 46.238 6.40413 46.2596L3.41413 48.3929C3.28488 48.4849 3.13552 48.5294 2.98796 48.5294Z" fill="white"/>
<path d="M22.7862 32.6002C22.681 32.6002 22.5758 32.578 22.4778 32.5327C22.2075 32.4078 15.8516 29.4113 15.8516 24.0862C15.8516 21.8652 17.6582 20.0586 19.8788 20.0586C20.9907 20.0586 22.0326 20.5182 22.783 21.3023C23.5283 20.5182 24.5728 20.0586 25.6944 20.0586C27.9085 20.0586 29.7098 21.8652 29.7098 24.0862C29.7098 29.4106 23.365 32.4071 23.095 32.532C22.997 32.5773 22.8918 32.6002 22.7862 32.6002ZM19.8788 21.5292C18.4689 21.5292 17.3222 22.6759 17.3222 24.0862C17.3222 27.8826 21.5871 30.4073 22.7852 31.0406C23.9811 30.4044 28.2392 27.8718 28.2392 24.0862C28.2392 22.6759 27.0975 21.5292 25.6944 21.5292C24.7412 21.5292 23.8766 22.0512 23.4382 22.8913C23.3119 23.1333 23.0623 23.2848 22.7895 23.2863C22.7884 23.2863 22.7873 23.2863 22.7862 23.2863C22.5148 23.2863 22.2653 23.1369 22.1375 22.8971C21.688 22.0534 20.8223 21.5292 19.8788 21.5292Z" fill="white"/>
<path d="M39.8478 17.3532C39.6905 17.3532 39.5329 17.346 39.3746 17.3316L29.8082 16.4355C28.7074 16.3321 27.9079 15.4223 27.9879 14.3639C27.9858 14.3093 27.998 14.2009 28.0221 14.0961C28.1046 13.7184 28.2303 13.3636 28.394 13.0477C28.6252 12.5687 28.9803 12.1063 29.4111 11.7301C30.3522 10.9043 31.6019 10.5137 32.9235 10.6422L38.5086 11.1642C38.9129 11.2023 39.2098 11.5606 39.1721 11.9649C39.134 12.3691 38.7772 12.6592 38.3715 12.6291L32.786 12.1063C31.8691 12.0115 31.0153 12.2787 30.3802 12.8366C30.0955 13.085 29.8639 13.3852 29.7088 13.7062C29.5953 13.9259 29.5135 14.1585 29.4571 14.4178C29.4345 14.738 29.6363 14.9419 29.9454 14.9707L39.5114 15.8668C40.3149 15.9415 41.1015 15.7476 41.7277 15.3189L47.3828 11.4881C47.7195 11.2604 48.1766 11.348 48.4042 11.6848C48.6318 12.0209 48.5439 12.4783 48.2078 12.7059L42.5556 16.5346C41.7747 17.0688 40.8272 17.3532 39.8478 17.3532Z" fill="#D9C18A"/>
<path d="M17.5575 39.381C17.3992 39.381 17.2391 39.3738 17.0775 39.3588L11.4917 38.8353C11.0875 38.7972 10.7902 38.4389 10.8282 38.0339C10.8656 37.6304 11.2217 37.3331 11.6289 37.3705L17.2143 37.8939C18.132 37.9794 18.985 37.7201 19.618 37.1629C19.9045 36.9138 20.1361 36.6143 20.2912 36.2934C20.405 36.0729 20.4844 35.846 20.5425 35.581C20.5655 35.2615 20.363 35.0569 20.0535 35.0274L10.4889 34.1327C9.6858 34.0566 8.89988 34.2519 8.27301 34.6806L2.61864 38.5114C2.28223 38.7391 1.82483 38.6515 1.5972 38.3147C1.36958 37.9786 1.45754 37.5212 1.79359 37.2936L7.44509 33.4649C8.352 32.8438 9.48187 32.5587 10.6265 32.6686L20.1914 33.5633C21.2922 33.6681 22.0914 34.5779 22.012 35.6356C22.0142 35.6895 22.0016 35.7993 21.9768 35.9056C21.8925 36.2891 21.7708 36.6337 21.606 36.9511C21.3744 37.4315 21.0186 37.8939 20.5863 38.2702C19.7638 38.994 18.7014 39.381 17.5575 39.381Z" fill="#D9C18A"/>
</svg>
