<svg width="50" height="50" viewBox="0 0 50 50" fill="none" xmlns="http://www.w3.org/2000/svg">
<path d="M22.3134 8.31532C22.3134 12.9844 24.6149 16.433 24.7619 16.6462C24.4017 16.433 18.7031 12.9844 18.7031 8.31532C18.7031 6.53587 20.1516 5.09473 21.9238 5.09473C22.3502 5.09473 22.7546 5.1756 23.1296 5.33003C22.6517 5.80058 22.3134 6.96236 22.3134 8.31532Z" fill="#E2E5EC"/>
<path d="M30.8352 8.31532C30.8352 13.1315 24.7764 16.6535 24.7764 16.6535C24.9234 16.433 27.225 12.9844 27.225 8.31532C27.225 6.96972 26.894 5.8153 26.4161 5.33003C26.7911 5.1756 27.1955 5.09473 27.622 5.09473C29.394 5.09473 30.8352 6.53587 30.8352 8.31532Z" fill="#E2E5EC"/>
<path d="M39.2783 45.9119C38.8722 45.9119 38.543 45.583 38.543 45.1766V36.0507C38.543 35.6443 38.8722 35.3154 39.2783 35.3154C39.6843 35.3154 40.0136 35.6443 40.0136 36.0507V45.1766C40.0136 45.583 39.6843 45.9119 39.2783 45.9119Z" fill="white"/>
<path d="M9.8974 46.3628C9.49134 46.3628 9.16211 46.0339 9.16211 45.6275V31.5205C9.16211 31.114 9.49134 30.7852 9.8974 30.7852C10.3035 30.7852 10.6327 31.114 10.6327 31.5205V45.6275C10.6327 46.0339 10.3035 46.3628 9.8974 46.3628Z" fill="white"/>
<path d="M14.8659 31.6886C14.6016 31.6886 14.3352 31.6598 14.0713 31.6002C13.675 31.5119 13.4258 31.1184 13.5149 30.722C13.6035 30.3264 13.9963 30.0765 14.393 30.1655C15.0332 30.3106 15.6963 30.1533 16.214 29.739C16.7257 29.3297 17.019 28.7172 17.019 28.0595V17.3316C17.019 16.1763 16.2442 15.1423 15.1352 14.817L12.8234 14.137L10.4825 17.2649C10.3435 17.4501 10.1252 17.5593 9.89367 17.5593C9.66174 17.5593 9.44309 17.4494 9.3045 17.2642L6.9708 14.137L4.66008 14.8163C3.55068 15.1423 2.77625 16.1763 2.77625 17.3316V28.0595C2.77625 28.7172 3.06958 29.3297 3.5812 29.739C4.09856 30.1533 4.76205 30.3099 5.4022 30.1655C5.79929 30.0758 6.19171 30.3264 6.28039 30.722C6.36943 31.1184 6.12026 31.5119 5.72389 31.6002C4.64608 31.8437 3.52986 31.5823 2.66208 30.8872C1.80005 30.1971 1.30566 29.166 1.30566 28.0595V17.3316C1.30566 15.5279 2.51452 13.9137 4.2454 13.4053L7.04656 12.5824C7.3424 12.4962 7.65942 12.6018 7.84325 12.8474L9.89439 15.5961L11.952 12.8466C12.1362 12.6018 12.4532 12.4969 12.7483 12.5824L15.5498 13.406C17.2804 13.9137 18.4896 15.5279 18.4896 17.3316V28.0595C18.4896 29.166 17.9952 30.1971 17.1332 30.8872C16.4779 31.4121 15.6809 31.6886 14.8659 31.6886Z" fill="#D9C18A"/>
<path d="M7.73114 48.5293C6.13095 48.5293 4.8291 47.2275 4.8291 45.6276V20.7138C4.8291 20.3074 5.15833 19.9785 5.5644 19.9785C5.97046 19.9785 6.29969 20.3074 6.29969 20.7138V45.6276C6.29969 46.4168 6.942 47.0587 7.73114 47.0587C8.52029 47.0587 9.16224 46.4168 9.16224 45.6276C9.16224 45.2212 9.49147 44.8923 9.89753 44.8923C10.3036 44.8923 10.6328 45.2212 10.6328 45.6276C10.6328 47.2275 9.33098 48.5293 7.73114 48.5293Z" fill="#D9C18A"/>
<path d="M12.0642 48.5293C10.464 48.5293 9.16211 47.2275 9.16211 45.6276C9.16211 45.2212 9.49134 44.8923 9.8974 44.8923C10.3035 44.8923 10.6327 45.2212 10.6327 45.6276C10.6327 46.4168 11.275 47.0587 12.0642 47.0587C12.8533 47.0587 13.4952 46.4168 13.4952 45.6276V20.7138C13.4952 20.3074 13.8245 19.9785 14.2305 19.9785C14.6366 19.9785 14.9658 20.3074 14.9658 20.7138V45.6276C14.9658 47.2275 13.664 48.5293 12.0642 48.5293Z" fill="#D9C18A"/>
<path d="M9.89753 11.6076C7.10284 11.6076 4.8291 9.33419 4.8291 6.53949C4.8291 3.7448 7.10284 1.4707 9.89753 1.4707C12.6922 1.4707 14.966 3.7448 14.966 6.53949C14.966 9.33419 12.6922 11.6076 9.89753 11.6076ZM9.89753 2.94129C7.91353 2.94129 6.29969 4.55549 6.29969 6.53949C6.29969 8.52349 7.91353 10.137 9.89753 10.137C11.8815 10.137 13.4954 8.52349 13.4954 6.53949C13.4954 4.55549 11.8815 2.94129 9.89753 2.94129Z" fill="#D9C18A"/>
<path d="M39.2766 36.7953C36.8793 36.7953 34.4817 36.1742 32.0996 34.9319C31.798 34.7747 31.6436 34.4314 31.7262 34.1011L35.5718 18.7483C35.6709 18.3548 36.0701 18.1171 36.4639 18.214C36.8578 18.3124 37.0969 18.7116 36.9985 19.1059L33.2959 33.8871C37.3163 35.8216 41.238 35.823 45.2519 33.8871L41.5428 19.1059C41.4437 18.7124 41.6828 18.3124 42.077 18.214C42.4716 18.1171 42.8705 18.3548 42.9689 18.7483L46.8216 34.1011C46.9046 34.4307 46.7505 34.7747 46.4489 34.9319C44.0704 36.1742 41.6738 36.7946 39.2766 36.7953Z" fill="#D9C18A"/>
<path d="M41.3517 47.9849C40.6164 47.9849 39.913 47.6984 39.3716 47.1771C38.8302 46.6156 38.543 45.9119 38.543 45.1766C38.543 44.7701 38.8722 44.4413 39.2783 44.4413C39.6843 44.4413 40.0136 44.7701 40.0136 45.1766C40.0136 45.5298 40.1547 45.8709 40.411 46.1373C40.6569 46.3736 40.9984 46.5143 41.3517 46.5143C42.0898 46.5143 42.6901 45.914 42.6901 45.1766V36.0507C42.6901 35.6443 43.0194 35.3154 43.4254 35.3154C43.8315 35.3154 44.1607 35.6443 44.1607 36.0507V45.1766C44.1607 46.7254 42.9005 47.9849 41.3517 47.9849Z" fill="#D9C18A"/>
<path d="M37.2036 47.9849C35.6475 47.9849 34.3877 46.7254 34.3877 45.1766V36.0507C34.3877 35.6443 34.7169 35.3154 35.123 35.3154C35.5291 35.3154 35.8583 35.6443 35.8583 36.0507V45.1766C35.8583 45.914 36.4586 46.5143 37.1964 46.5143C37.9417 46.5143 38.542 45.914 38.542 45.1766C38.542 44.7701 38.8713 44.4413 39.2773 44.4413C39.6834 44.4413 40.0126 44.7701 40.0126 45.1766C40.0126 46.7254 38.7524 47.9849 37.2036 47.9849Z" fill="#D9C18A"/>
<path d="M39.4415 11.6076C36.6468 11.6076 34.373 9.33419 34.373 6.53949C34.373 3.7448 36.6468 1.4707 39.4415 1.4707C42.2362 1.4707 44.5099 3.7448 44.5099 6.53949C44.5099 9.33419 42.2362 11.6076 39.4415 11.6076ZM39.4415 2.94129C37.4575 2.94129 35.8436 4.55549 35.8436 6.53949C35.8436 8.52349 37.4575 10.137 39.4415 10.137C41.4255 10.137 43.0393 8.52349 43.0393 6.53949C43.0393 4.55549 41.4255 2.94129 39.4415 2.94129Z" fill="#D9C18A"/>
<path d="M45.5996 30.4115C45.3953 30.4115 45.1889 30.3907 44.9832 30.3498C44.9534 30.344 44.9243 30.3361 44.8952 30.3261C44.51 30.1982 44.3006 29.781 44.4292 29.3962C44.5498 29.0343 44.9261 28.826 45.2891 28.9115C45.8456 29.0156 46.3819 28.8433 46.7719 28.4354C47.1653 28.024 47.3122 27.471 47.175 26.9189L44.8098 17.3844C44.4252 15.8327 43.0404 14.7499 41.4424 14.7499H37.1057C35.5076 14.7499 34.1225 15.8334 33.738 17.3844L31.3734 26.9181C31.2362 27.471 31.3831 28.024 31.7769 28.4354C32.1704 28.8476 32.7169 29.0192 33.2755 28.9072C33.6751 28.8253 34.0611 29.0845 34.1415 29.4831C34.2216 29.8816 33.9634 30.2693 33.5656 30.349C32.5173 30.5623 31.452 30.2248 30.7139 29.4522C29.9757 28.6795 29.6888 27.6003 29.9459 26.5634L32.3105 17.0297C32.8583 14.8217 34.8301 13.2793 37.1057 13.2793H41.4424C43.7179 13.2793 45.6897 14.8217 46.2373 17.0304L48.6025 26.5641C48.8596 27.6003 48.5727 28.6795 47.8353 29.4515C47.2418 30.0726 46.4369 30.4115 45.5996 30.4115Z" fill="#D9C18A"/>
<path d="M24.7736 17.3874C24.6461 17.3874 24.5186 17.3543 24.4045 17.2883C24.1417 17.1353 17.9678 13.4933 17.9678 8.31537C17.9678 6.13319 19.7432 4.35742 21.9257 4.35742C23.0136 4.35742 24.0332 4.80406 24.77 5.56879C25.5024 4.80406 26.5242 4.35742 27.6207 4.35742C29.7971 4.35742 31.5678 6.13319 31.5678 8.31537C31.5678 13.4926 25.4054 17.1353 25.143 17.2875C25.0288 17.3543 24.9014 17.3874 24.7736 17.3874ZM21.9257 5.82801C20.5542 5.82801 19.4384 6.94388 19.4384 8.31537C19.4384 11.9997 23.5076 14.9546 24.7725 15.7832C26.0348 14.9517 30.0973 11.9904 30.0973 8.31537C30.0973 6.94388 28.9864 5.82801 27.6207 5.82801C26.6933 5.82801 25.8521 6.33568 25.4252 7.15283C25.2992 7.39482 25.0493 7.54633 24.7768 7.54777C24.7757 7.54777 24.7746 7.54777 24.7736 7.54777C24.5021 7.54777 24.2526 7.39841 24.1248 7.15858C23.6868 6.33783 22.8441 5.82801 21.9257 5.82801Z" fill="#D9C18A"/>
</svg>
