<svg width="56" height="40" viewBox="0 0 56 40" fill="none" xmlns="http://www.w3.org/2000/svg">
<path fill-rule="evenodd" clip-rule="evenodd" d="M44.073 10.9443C46.0942 8.11263 49.9146 5.06424 55.1157 2.52648C56.4673 1.86698 55.8576 -0.177104 54.3655 0.0116285C43.4375 1.39393 36.3545 6.17997 32.4866 13.2974C31.048 15.9445 30.1442 18.7622 29.6628 21.6385C29.3455 23.5349 29.2616 24.9581 29.2616 26.6019C29.2616 33.9475 35.2164 39.9023 42.5621 39.9023C49.9077 39.9023 55.8625 33.9475 55.8625 26.6019C55.8625 19.2563 49.8127 13.2974 42.8605 13.2974C43.2272 12.2903 43.3153 12.0058 44.073 10.9443ZM14.8121 10.9443C16.8333 8.11263 20.6537 5.06424 25.8548 2.52648C27.2064 1.86698 26.5967 -0.177104 25.1046 0.0116285C14.1766 1.39393 7.09358 6.17997 3.22566 13.2974C1.78707 15.9445 0.883248 18.7622 0.40192 21.6385C0.0845641 23.5349 0.000752487 24.9581 0.000752487 26.6019C0.000752487 33.9475 5.95555 39.9023 13.3012 39.9023C20.6468 39.9023 26.6016 33.9475 26.6016 26.6019C26.6016 19.2563 20.5518 13.2974 13.5996 13.2974C13.9663 12.2903 14.0544 12.0058 14.8121 10.9443Z" fill="white" fill-opacity="0.1"/>
</svg>
