<svg width="50" height="50" viewBox="0 0 50 50" fill="none" xmlns="http://www.w3.org/2000/svg">
<path d="M24.7857 24.9999C19.2196 24.9999 14.1313 19.7278 14.8372 9.0293C15.4181 17.1911 19.9181 21.2205 24.7857 21.2205C29.1387 21.2205 34.0725 17.9558 34.749 10.2426C35.5725 20.6911 29.7858 24.9999 24.7857 24.9999Z" fill="white"/>
<path d="M25.007 36.9057C24.9184 36.9057 24.8282 36.8899 24.7406 36.8554C24.3622 36.7082 24.1744 36.2824 24.3217 35.904C24.9805 34.2094 26.0701 32.7252 27.5605 31.493C27.6922 31.3838 27.8581 31.3242 28.029 31.3242C28.4351 31.3242 28.7679 31.6531 28.7679 32.0595C28.7679 32.3144 28.6393 32.5399 28.4433 32.6713C27.1767 33.7326 26.2511 34.9993 25.6924 36.4368C25.5793 36.7276 25.3014 36.9057 25.007 36.9057Z" fill="#D9C18A"/>
<path d="M25.1655 41.0671C24.8715 41.0671 24.5936 40.889 24.4801 40.5982C23.9157 39.1484 22.9808 37.8739 21.7009 36.8104C21.5213 36.6762 21.4043 36.4622 21.4043 36.2216C21.4043 35.8152 21.7299 35.4863 22.136 35.4863H22.1432C22.3141 35.4863 22.4796 35.5459 22.6114 35.6544C24.1003 36.8844 25.1903 38.3679 25.8509 40.0654C25.9981 40.4438 25.8107 40.8696 25.4323 41.0168C25.3447 41.0513 25.2542 41.0671 25.1655 41.0671Z" fill="#D9C18A"/>
<path d="M22.2702 6.2434C22.1658 6.2434 22.0599 6.22114 21.959 6.17374C21.591 6.00213 21.4326 5.56411 21.6046 5.19646C22.5736 3.12701 24.2324 1.70525 24.3024 1.64565C24.5741 1.41444 24.9723 1.41228 25.247 1.63991C25.3145 1.69592 26.9136 3.03366 27.9124 5.01479C28.0952 5.37741 27.9494 5.81974 27.5868 6.00213C27.2231 6.18667 26.7815 6.03875 26.5991 5.67685C26.0501 4.58755 25.2771 3.71295 24.7849 3.21749C24.2783 3.73952 23.4726 4.67515 22.9366 5.81974C22.8117 6.08686 22.5467 6.2434 22.2702 6.2434Z" fill="white"/>
<path d="M24.8026 9.70627C24.7495 9.70627 24.6956 9.70053 24.6417 9.68832C24.2454 9.6 23.9959 9.20722 24.0842 8.81085C24.4213 7.30077 25.3347 5.94148 26.7984 4.77104C28.25 3.60706 29.7224 3.06062 29.7845 3.03764C30.1184 2.91629 30.4929 3.04985 30.6724 3.3579C30.7345 3.46417 32.195 6.00467 32.0062 8.90922C31.9796 9.31421 31.6256 9.61723 31.2246 9.59497C30.8192 9.5684 30.5123 9.21871 30.5385 8.813C30.649 7.11407 30.0635 5.51064 29.6915 4.68272C29.1917 4.92471 28.4468 5.334 27.7176 5.91922C26.5213 6.87568 25.782 7.95636 25.5196 9.13111C25.4431 9.47362 25.1394 9.70627 24.8026 9.70627Z" fill="#D9C18A"/>
<path d="M25.0055 10.3763C24.6781 10.3763 24.3794 10.1566 24.2939 9.82485C24.2419 9.62307 24.1841 9.4213 24.1126 9.23317C23.6839 8.03401 22.9099 6.97774 21.8062 6.07873C20.9675 5.39872 20.1188 4.9643 19.5802 4.72734C19.2183 5.51864 18.6618 7.10268 18.9728 8.88203C19.0428 9.28199 18.7753 9.66257 18.3753 9.73294C17.9743 9.80259 17.5944 9.53475 17.5244 9.13479C16.9816 6.03062 18.5455 3.51453 18.6126 3.40898C18.7911 3.1275 19.1354 3.00184 19.4542 3.10093C19.5217 3.12247 21.1284 3.63588 22.7336 4.93773C24.0494 6.00907 24.9772 7.28291 25.4924 8.72406C25.5778 8.94881 25.6522 9.20229 25.7179 9.4572C25.8195 9.8507 25.5829 10.2514 25.1894 10.3533C25.128 10.3691 25.0662 10.3763 25.0055 10.3763Z" fill="#D9C18A"/>
<path d="M24.7859 25.7357C22.0792 25.7357 19.5509 24.5753 17.6667 22.4685C14.737 19.1927 13.5195 13.8503 14.239 7.42656C14.2642 7.20253 14.3902 7.00291 14.5815 6.88371C14.7725 6.76523 15.0077 6.7401 15.2195 6.81693C15.5283 6.92823 22.1804 9.37251 24.4466 13.413C28.0498 8.77149 33.8694 6.90669 34.1921 6.80616C34.3943 6.74225 34.6147 6.77026 34.7949 6.88156C34.9755 6.99214 35.0998 7.17524 35.1357 7.3842C36.4899 15.2994 34.4205 19.7521 32.4462 22.093C30.4934 24.408 27.7016 25.7357 24.7859 25.7357ZM15.6066 8.55751C15.151 14.1218 16.2596 18.6886 18.7632 21.4883C20.3644 23.2792 22.5035 24.2651 24.7859 24.2651C27.2672 24.2651 29.6493 23.1277 31.322 21.1451C33.0238 19.1266 34.796 15.3145 33.8234 8.50724C31.4674 9.44431 24.6829 12.6684 23.344 19.1353C23.2618 19.5323 22.8701 19.7822 22.4752 19.7061C22.0774 19.6235 21.8217 19.2344 21.9043 18.8365C22.2145 17.338 22.7717 16.0024 23.4837 14.8168C22.342 11.7155 17.5988 9.40769 15.6066 8.55751Z" fill="white"/>
<path d="M25.0063 48.5293C24.9654 48.5293 24.9238 48.5265 24.8817 48.5193C24.4821 48.4511 24.2129 48.0712 24.2804 47.6713C24.2865 47.6361 24.8656 44.0465 24.0308 35.6344C23.1911 27.1677 24.0118 24.9382 24.1084 24.712C24.2674 24.3379 24.7008 24.1648 25.0727 24.3235C25.4422 24.4808 25.6163 24.9044 25.467 25.2749C25.4418 25.3446 24.7047 27.5311 25.4943 35.4894C26.3531 44.1427 25.7556 47.7696 25.7298 47.9197C25.6684 48.2773 25.3578 48.5293 25.0063 48.5293Z" fill="white"/>
<path d="M30.9158 33.4597C29.1271 33.4597 27.765 32.7531 27.6817 32.7093C27.383 32.5506 27.2307 32.2088 27.3133 31.8807C27.3535 31.7198 28.3333 27.9313 31.2651 26.4607C34.206 24.9873 37.8225 26.4737 37.9751 26.5383C38.1582 26.6151 38.3025 26.763 38.375 26.9483C38.4476 27.1328 38.4418 27.3396 38.3596 27.5206C38.2885 27.6771 36.5831 31.3716 33.713 32.8098C32.7454 33.2945 31.7807 33.4597 30.9158 33.4597ZM28.9311 31.6387C29.7734 31.9302 31.44 32.3029 33.0542 31.4951C34.7671 30.637 36.0413 28.7004 36.6406 27.6398C35.5631 27.3346 33.5504 26.9605 31.9243 27.7748C30.2035 28.6379 29.2941 30.6348 28.9311 31.6387Z" fill="white"/>
<path d="M18.8647 37.8194C18.0328 37.8194 17.1295 37.66 16.2334 37.2105C13.2972 35.7385 11.6941 31.7324 11.6274 31.563C11.4855 31.2025 11.6478 30.7939 11.9979 30.6288C12.158 30.5534 15.9583 28.792 18.9623 30.2992C21.9588 31.8006 22.8302 35.9008 22.8657 36.0745C22.9289 36.3826 22.7893 36.6971 22.5185 36.8565C22.4259 36.9104 20.8491 37.8194 18.8647 37.8194ZM13.3008 31.6944C13.8476 32.8074 15.106 35.0003 16.8925 35.8965C18.6051 36.7531 20.4279 36.1894 21.2802 35.8268C20.9643 34.7806 20.0958 32.5122 18.3032 31.6132C16.5913 30.7559 14.3923 31.3159 13.3008 31.6944Z" fill="white"/>
</svg>
