<svg width="24" height="24" viewBox="0 0 24 24" fill="none" xmlns="http://www.w3.org/2000/svg">
<g clip-path="url(#clip0_553_1274)">
<path d="M12.0006 13.715C14.3675 13.715 16.2863 11.7962 16.2863 9.42927C16.2863 7.06233 14.3675 5.14355 12.0006 5.14355C9.63362 5.14355 7.71484 7.06233 7.71484 9.42927C7.71484 11.7962 9.63362 13.715 12.0006 13.715Z" stroke="#D9C18A" stroke-width="1.5" stroke-linecap="round" stroke-linejoin="round"/>
<path d="M3.59961 23.1431C3.99306 21.2054 5.04429 19.4634 6.57517 18.2121C8.10604 16.9609 10.0224 16.2773 11.9996 16.2773C13.9768 16.2773 15.8932 16.9609 17.4241 18.2121C18.9549 19.4634 20.0062 21.2054 20.3996 23.1431" stroke="#D9C18A" stroke-width="1.5" stroke-linecap="round" stroke-linejoin="round"/>
<path d="M21.4289 0.857422H2.57171C1.62493 0.857422 0.857422 1.62493 0.857422 2.57171V21.4289C0.857422 22.3756 1.62493 23.1431 2.57171 23.1431H21.4289C22.3756 23.1431 23.1431 22.3756 23.1431 21.4289V2.57171C23.1431 1.62493 22.3756 0.857422 21.4289 0.857422Z" stroke="#D9C18A" stroke-width="1.5" stroke-linecap="round" stroke-linejoin="round"/>
</g>
<defs>
<clipPath id="clip0_553_1274">
<rect width="24" height="24" fill="white"/>
</clipPath>
</defs>
</svg>
