<svg width="50" height="50" viewBox="0 0 50 50" fill="none" xmlns="http://www.w3.org/2000/svg">
<path d="M42.2358 31.4629V38.8232H7.75781V36.8968H40.0887V29.5365C40.0887 29.4629 40.0887 29.3968 40.074 29.3232H40.0961C41.2799 29.3232 42.2358 30.2791 42.2358 31.4629Z" fill="white"/>
<path d="M39.1303 21.5654H37.4765V27.3936H10.3086V29.3201H39.6235V22.2984C39.3747 22.1178 39.2123 21.8554 39.1303 21.5654Z" fill="white"/>
<path d="M44.7765 40.4346V47.7949H5.22656V45.8684H42.6295V38.5081C42.6295 38.4346 42.6295 38.3684 42.6148 38.2949H42.6368C43.8207 38.2949 44.7765 39.2508 44.7765 40.4346Z" fill="white"/>
<path d="M39.8278 45.536C38.3044 45.536 37.5013 44.7993 36.8561 44.2069C36.2827 43.6813 35.83 43.2655 34.8793 43.2655C33.9296 43.2655 33.4773 43.6813 32.9043 44.2069C32.2594 44.7993 31.457 45.536 29.9344 45.536C28.4131 45.536 27.6114 44.7993 26.967 44.2069C26.3947 43.6813 25.9427 43.2655 24.9937 43.2655C24.0445 43.2655 23.5924 43.6813 23.0201 44.2069C22.3757 44.7993 21.5733 45.536 20.0513 45.536C18.529 45.536 17.727 44.7993 17.0821 44.2069C16.5099 43.6813 16.0575 43.2655 15.1086 43.2655C14.16 43.2655 13.708 43.6813 13.1357 44.2069C12.4912 44.7993 11.6895 45.536 10.1676 45.536C8.64529 45.536 7.84286 44.7993 7.1984 44.2069C6.62611 43.6805 6.17409 43.2655 5.22553 43.2655C4.81947 43.2655 4.49023 42.9366 4.49023 42.5302C4.49023 42.1238 4.81947 41.7949 5.22553 41.7949C6.7471 41.7949 7.54917 42.5317 8.19327 43.1241C8.76593 43.6497 9.21831 44.0654 10.1676 44.0654C11.1161 44.0654 11.5682 43.6497 12.1405 43.1241C12.7849 42.5317 13.5866 41.7949 15.1086 41.7949C16.6305 41.7949 17.4326 42.5317 18.0774 43.1241C18.6497 43.6497 19.1021 44.0654 20.0513 44.0654C21.0006 44.0654 21.4526 43.6497 22.0249 43.1241C22.6694 42.5317 23.4718 41.7949 24.9937 41.7949C26.516 41.7949 27.3177 42.5324 27.9622 43.1241C28.5345 43.6504 28.9862 44.0654 29.9344 44.0654C30.8844 44.0654 31.3367 43.6497 31.9097 43.1241C32.5546 42.5317 33.3566 41.7949 34.8793 41.7949C36.4026 41.7949 37.2054 42.5317 37.8506 43.1233C38.424 43.6497 38.8767 44.0654 39.8278 44.0654C40.7781 44.0654 41.2309 43.6497 41.8039 43.1241C42.4491 42.5317 43.2519 41.7949 44.7756 41.7949C45.1817 41.7949 45.5109 42.1238 45.5109 42.5302C45.5109 42.9366 45.1817 43.2655 44.7756 43.2655C43.8245 43.2655 43.3718 43.6813 42.7984 44.2076C42.1532 44.7993 41.3504 45.536 39.8278 45.536Z" fill="#D9C18A"/>
<path d="M37.9266 35.8418C36.5526 35.8418 35.8363 35.1546 35.2608 34.6024C34.7585 34.1206 34.3959 33.7723 33.6132 33.7723C32.8316 33.7723 32.4693 34.1206 31.9677 34.6017C31.3922 35.1546 30.6763 35.8418 29.3023 35.8418C27.9297 35.8418 27.2145 35.1546 26.6397 34.6017C26.1385 34.1206 25.7766 33.7723 24.9957 33.7723C24.2145 33.7723 23.8519 34.1206 23.3507 34.6024C22.7755 35.1546 22.0599 35.8418 20.687 35.8418C19.3137 35.8418 18.5982 35.1546 18.023 34.6017C17.5218 34.1206 17.1595 33.7723 16.3786 33.7723C15.5981 33.7723 15.2359 34.1206 14.7346 34.6017C14.1595 35.1546 13.4439 35.8418 12.0706 35.8418C10.6981 35.8418 9.98252 35.1546 9.40772 34.6024C8.90651 34.1206 8.54389 33.7723 7.76264 33.7723C7.35657 33.7723 7.02734 33.4435 7.02734 33.0371C7.02734 32.6306 7.35657 32.3018 7.76264 32.3018C9.13593 32.3018 9.85148 32.9889 10.4266 33.5418C10.9278 34.0229 11.2901 34.3712 12.0706 34.3712C12.8519 34.3712 13.2145 34.0229 13.7157 33.5411C14.2905 32.9889 15.0061 32.3018 16.3786 32.3018C17.7516 32.3018 18.4668 32.9889 19.0419 33.5411C19.5431 34.0229 19.9058 34.3712 20.687 34.3712C21.4683 34.3712 21.8305 34.0229 22.3317 33.5418C22.9069 32.9889 23.6224 32.3018 24.9957 32.3018C26.3687 32.3018 27.0839 32.9889 27.6587 33.5418C28.1599 34.0229 28.5218 34.3712 29.3023 34.3712C30.0846 34.3712 30.4473 34.0229 30.9492 33.5411C31.5243 32.9889 32.2399 32.3018 33.6132 32.3018C34.9872 32.3018 35.7035 32.9889 36.279 33.5411C36.7813 34.0229 37.1439 34.3712 37.9266 34.3712C38.7096 34.3712 39.0726 34.0229 39.5749 33.5411C40.1504 32.9889 40.8667 32.3018 42.2407 32.3018C42.6467 32.3018 42.976 32.6306 42.976 33.0371C42.976 33.4435 42.6467 33.7723 42.2407 33.7723C41.458 33.7723 41.0954 34.1206 40.5931 34.6024C40.0176 35.1546 39.3009 35.8418 37.9266 35.8418Z" fill="#D9C18A"/>
<path d="M35.9647 26.784C34.7972 26.784 34.1793 26.3015 33.6827 25.9137C33.2673 25.5892 32.9672 25.3544 32.3051 25.3544C31.6442 25.3544 31.3444 25.5885 30.9293 25.913C30.4335 26.3015 29.816 26.784 28.6488 26.784C27.4819 26.784 26.8647 26.3008 26.3689 25.913C25.9546 25.5885 25.6552 25.3544 24.9949 25.3544C24.3343 25.3544 24.0349 25.5885 23.6202 25.913C23.124 26.3015 22.5068 26.784 21.34 26.784C20.1728 26.784 19.5556 26.3008 19.0594 25.913C18.6447 25.5885 18.3453 25.3544 17.6847 25.3544C17.0252 25.3544 16.7257 25.5885 16.3114 25.913C15.8152 26.3008 15.1981 26.784 14.0301 26.784C12.8629 26.784 12.2457 26.3008 11.7499 25.913C11.3356 25.5885 11.0358 25.3544 10.3759 25.3544C9.96986 25.3544 9.64062 25.0255 9.64062 24.6191C9.64062 24.2127 9.96986 23.8838 10.3759 23.8838C11.5431 23.8838 12.1603 24.367 12.6561 24.7548C13.0704 25.0794 13.3702 25.3134 14.0301 25.3134C14.6911 25.3134 14.9905 25.0794 15.4052 24.7548C15.901 24.3663 16.5182 23.8838 17.6847 23.8838C18.8519 23.8838 19.4694 24.367 19.9656 24.7548C20.3803 25.0794 20.6797 25.3134 21.34 25.3134C21.9999 25.3134 22.2993 25.0794 22.714 24.7548C23.2102 24.367 23.8273 23.8838 24.9949 23.8838C26.1621 23.8838 26.7793 24.367 27.2751 24.7548C27.6894 25.0794 27.9889 25.3134 28.6488 25.3134C29.3094 25.3134 29.6088 25.0794 30.0235 24.7548C30.5197 24.367 31.1376 23.8838 32.3051 23.8838C33.4738 23.8838 34.0917 24.3663 34.5882 24.7548C35.0036 25.0794 35.3034 25.3134 35.9647 25.3134C36.6264 25.3134 36.9262 25.0786 37.3416 24.7548C37.8381 24.3663 38.4557 23.8838 39.6236 23.8838C40.0297 23.8838 40.3589 24.2127 40.3589 24.6191C40.3589 25.0255 40.0297 25.3544 39.6236 25.3544C38.9623 25.3544 38.6621 25.5885 38.2471 25.913C37.7505 26.3015 37.1327 26.784 35.9647 26.784Z" fill="#D9C18A"/>
<path d="M47.1589 48.5302H2.84272C2.43665 48.5302 2.10742 48.2013 2.10742 47.7949C2.10742 47.3884 2.43665 47.0596 2.84272 47.0596H47.1589C47.565 47.0596 47.8942 47.3884 47.8942 47.7949C47.8942 48.2013 47.565 48.5302 47.1589 48.5302Z" fill="white"/>
<path d="M44.7756 48.5297C44.3695 48.5297 44.0403 48.2008 44.0403 47.7944V40.9663C44.0403 40.1894 43.4084 39.5575 42.6315 39.5575H7.36966C6.59272 39.5575 5.96082 40.1894 5.96082 40.9663V47.7944C5.96082 48.2008 5.63159 48.5297 5.22553 48.5297C4.81947 48.5297 4.49023 48.2008 4.49023 47.7944V40.9663C4.49023 39.3787 5.78203 38.0869 7.36966 38.0869H42.6315C44.2191 38.0869 45.5109 39.3787 45.5109 40.9663V47.7944C45.5109 48.2008 45.1817 48.5297 44.7756 48.5297Z" fill="white"/>
<path d="M42.2387 39.5576H7.76068C7.35462 39.5576 7.02539 39.2288 7.02539 38.8224V31.4651C7.02539 29.8768 8.31754 28.585 9.90553 28.585H40.0939C41.6819 28.585 42.974 29.8768 42.974 31.4651V38.8224C42.974 39.2288 42.6448 39.5576 42.2387 39.5576ZM8.49598 38.0871H41.5034V31.4651C41.5034 30.6882 40.8712 30.0555 40.0939 30.0555H9.90553C9.12823 30.0555 8.49598 30.6882 8.49598 31.4651V38.0871Z" fill="white"/>
<path d="M39.6236 30.0555C39.2175 30.0555 38.8883 29.7266 38.8883 29.3202V23.4917C38.8883 22.7148 38.2564 22.0829 37.4795 22.0829H12.5208C11.7435 22.0829 11.1112 22.7148 11.1112 23.4917V29.3202C11.1112 29.7266 10.782 30.0555 10.3759 30.0555C9.96986 30.0555 9.64062 29.7266 9.64062 29.3202V23.4917C9.64062 21.9041 10.9328 20.6123 12.5208 20.6123H37.4795C39.0671 20.6123 40.3589 21.9041 40.3589 23.4917V29.3202C40.3589 29.7266 40.0297 30.0555 39.6236 30.0555Z" fill="white"/>
<path d="M26.4943 22.0838H23.5068C23.1007 22.0838 22.7715 21.7549 22.7715 21.3485V16.0585C22.7715 15.6521 23.1007 15.3232 23.5068 15.3232C23.9128 15.3232 24.2421 15.6521 24.2421 16.0585V20.6132H25.759V16.0657C25.759 15.6593 26.0882 15.3304 26.4943 15.3304C26.9003 15.3304 27.2296 15.6593 27.2296 16.0657V21.3485C27.2296 21.7549 26.9003 22.0838 26.4943 22.0838Z" fill="white"/>
<path d="M35.087 22.0838C34.924 22.0838 34.765 22.0299 34.6357 21.9301C34.5391 22.0048 34.4221 22.0572 34.2925 22.0759C33.8922 22.1376 33.517 21.8569 33.4581 21.4555C33.3787 20.9155 33.2973 19.8499 33.643 18.7786C33.7392 18.4619 33.8731 18.1531 34.0376 17.8738C35.0816 16.1067 37.2301 15.4525 37.3209 15.4252C37.5137 15.3692 37.7209 15.3929 37.8946 15.492C38.0688 15.5911 38.1948 15.757 38.2436 15.9516C38.2662 16.042 38.7843 18.1804 37.7345 19.9576C37.113 21.0045 36.13 21.6494 35.4145 22.0062C35.3093 22.0594 35.1972 22.0838 35.087 22.0838ZM36.9177 17.1902C36.381 17.4738 35.7071 17.9384 35.3046 18.6199C35.2001 18.7979 35.1125 19.0004 35.0461 19.2187C34.8842 19.7214 34.849 20.2283 34.8608 20.6383C35.3868 20.3619 36.0582 19.9009 36.4693 19.208C36.8599 18.5466 36.9342 17.7726 36.9177 17.1902Z" fill="white"/>
<path d="M33.5207 22.0835C33.3944 22.0835 33.2665 22.0512 33.1495 21.9823C32.4113 21.55 31.4165 20.796 30.8715 19.6658C29.9721 17.801 30.6654 15.7165 30.6955 15.6281C30.7602 15.4386 30.8998 15.2828 31.0822 15.1987C31.2646 15.114 31.4735 15.109 31.6602 15.1815C31.7486 15.216 33.8324 16.0518 34.7267 17.9051C34.8721 18.1952 34.9809 18.5068 35.0549 18.8494C35.1407 19.2457 34.8883 19.6371 34.4916 19.7232C34.0934 19.8073 33.7031 19.5567 33.6173 19.1596C33.5699 18.9398 33.501 18.7417 33.4069 18.5535C33.0587 17.8319 32.425 17.3077 31.9126 16.9759C31.8487 17.554 31.8602 18.3302 32.1963 19.0267C32.5804 19.8245 33.3312 20.3846 33.8934 20.7142C34.2438 20.9195 34.3612 21.3698 34.1559 21.7202C34.0191 21.9535 33.7731 22.0835 33.5207 22.0835Z" fill="white"/>
<path d="M14.5349 22.0835C14.4247 22.0835 14.3127 22.0591 14.2075 22.0059C13.492 21.649 12.5089 21.0042 11.8882 19.9587C10.8376 18.1808 11.355 16.0417 11.3776 15.952C11.4265 15.7574 11.5521 15.5908 11.7262 15.4917C11.9 15.3926 12.1079 15.3696 12.2993 15.4249C12.3908 15.4522 14.5486 16.1063 15.5847 17.8735C15.7585 18.17 15.8949 18.4781 15.9897 18.7904C16.3254 19.8546 16.2429 20.9173 16.1639 21.4552C16.105 21.8573 15.7298 22.1388 15.3295 22.0756C15.1999 22.0569 15.0828 22.0045 14.9862 21.9298C14.857 22.0296 14.6979 22.0835 14.5349 22.0835ZM12.7028 17.1877C12.6859 17.7694 12.7606 18.5442 13.1534 19.2091C13.5638 19.9006 14.2355 20.3616 14.7619 20.638C14.7744 20.2287 14.7417 19.7232 14.5852 19.2256C14.5217 19.0166 14.4319 18.8149 14.3163 18.6174C13.9167 17.936 13.2414 17.4714 12.7028 17.1877Z" fill="white"/>
<path d="M16.1016 22.0841C15.8492 22.0841 15.6032 21.9542 15.4664 21.7208C15.2611 21.3704 15.3785 20.9201 15.7289 20.7148C16.2911 20.3852 17.0419 19.8251 17.426 19.0273C17.761 18.333 17.7743 17.556 17.7125 16.9766C17.1995 17.3069 16.5654 17.8289 16.2201 18.5448C16.1217 18.7408 16.0527 18.939 16.0046 19.1609C15.9185 19.5573 15.5278 19.8107 15.13 19.7231C14.7333 19.6363 14.4813 19.2449 14.5678 18.8478C14.6425 18.5046 14.7513 18.193 14.9003 17.8957C15.7899 16.051 17.8824 15.2166 17.9707 15.1814C18.1577 15.1082 18.3667 15.1146 18.5494 15.2001C18.7318 15.2855 18.8711 15.4413 18.9354 15.6316C18.9648 15.7192 19.6495 17.8038 18.7509 19.6664C18.2058 20.7966 17.211 21.5506 16.4728 21.9829C16.3558 22.0518 16.228 22.0841 16.1016 22.0841Z" fill="white"/>
<path d="M25.0041 17.8689C24.8813 17.8689 24.7585 17.8381 24.6476 17.777C24.4745 17.6808 20.4121 15.3888 20.4121 11.9378C20.4121 10.4033 21.6608 9.15527 23.1953 9.15527C23.8685 9.15527 24.5051 9.3987 25.0012 9.82379C25.4953 9.3987 26.1336 9.15527 26.8129 9.15527C28.3431 9.15527 29.5878 10.4033 29.5878 11.9378C29.5878 15.388 25.5337 17.6808 25.3613 17.7763C25.25 17.8381 25.1273 17.8689 25.0041 17.8689ZM23.1953 10.6259C22.4715 10.6259 21.8827 11.2147 21.8827 11.9378C21.8827 14.0173 24.1155 15.6875 25.0037 16.2691C25.8902 15.6875 28.1173 14.0173 28.1173 11.9378C28.1173 11.2147 27.532 10.6259 26.8129 10.6259C26.3235 10.6259 25.8801 10.893 25.6561 11.3231C25.5301 11.5644 25.2806 11.7166 25.0077 11.718C25.0066 11.718 25.0052 11.718 25.0041 11.718C24.7327 11.718 24.4835 11.5687 24.3557 11.3288C24.1238 10.8951 23.6793 10.6259 23.1953 10.6259Z" fill="white"/>
<path d="M25.0606 8.40034C23.6313 8.40034 22.4688 7.2378 22.4688 5.80886C22.4688 4.63555 23.9961 2.42607 24.4642 1.77623C24.6168 1.56512 24.8685 1.44951 25.1288 1.47393C25.388 1.49834 25.6153 1.65775 25.7262 1.89399C25.7341 1.91051 26.5211 3.58359 27.1078 4.55082C27.6251 5.41321 27.6679 6.3948 27.2241 7.1782C26.7908 7.94365 25.9822 8.40034 25.0606 8.40034ZM24.9608 3.6755C24.3964 4.5781 23.9393 5.47065 23.9393 5.80886C23.9393 6.42711 24.4423 6.92975 25.0606 6.92975C25.4455 6.92975 25.7758 6.75167 25.9445 6.45368C26.1291 6.12768 26.095 5.72197 25.8483 5.31052C25.5578 4.83086 25.2308 4.21045 24.9608 3.6755Z" fill="white"/>
<path d="M25.0615 11.7192C24.6554 11.7192 24.3262 11.3903 24.3262 10.9839V7.66498C24.3262 7.25856 24.6554 6.92969 25.0615 6.92969C25.4675 6.92969 25.7968 7.25856 25.7968 7.66498V10.9839C25.7968 11.3903 25.4675 11.7192 25.0615 11.7192Z" fill="white"/>
</svg>
