<svg width="50" height="50" viewBox="0 0 50 50" fill="none" xmlns="http://www.w3.org/2000/svg">
<path d="M24.7848 24.9999C19.2186 24.9999 14.1304 19.7278 14.8363 9.0293C15.4171 17.1911 19.9171 21.2205 24.7848 21.2205C29.1377 21.2205 34.0715 17.9558 34.748 10.2426C35.5716 20.6911 29.7848 24.9999 24.7848 24.9999Z" fill="white"/>
<path d="M25.0061 36.9057C24.9174 36.9057 24.8273 36.8899 24.7397 36.8554C24.3612 36.7082 24.1735 36.2824 24.3207 35.904C24.9795 34.2094 26.0692 32.7252 27.5595 31.493C27.6913 31.3838 27.8571 31.3242 28.028 31.3242C28.4341 31.3242 28.7669 31.6531 28.7669 32.0595C28.7669 32.3144 28.6384 32.5399 28.4423 32.6713C27.1757 33.7326 26.2501 34.9993 25.6915 36.4368C25.5784 36.7276 25.3005 36.9057 25.0061 36.9057Z" fill="#D9C18A"/>
<path d="M25.1645 41.0671C24.8705 41.0671 24.5926 40.889 24.4791 40.5982C23.9147 39.1484 22.9798 37.8739 21.6999 36.8104C21.5204 36.6762 21.4033 36.4622 21.4033 36.2216C21.4033 35.8152 21.729 35.4863 22.135 35.4863H22.1422C22.3131 35.4863 22.4786 35.5459 22.6104 35.6544C24.0993 36.8844 25.1893 38.3679 25.8499 40.0654C25.9971 40.4438 25.8097 40.8696 25.4313 41.0168C25.3437 41.0513 25.2532 41.0671 25.1645 41.0671Z" fill="#D9C18A"/>
<path d="M22.2702 6.2434C22.1658 6.2434 22.0599 6.22114 21.959 6.17374C21.591 6.00213 21.4326 5.56411 21.6046 5.19646C22.5736 3.12701 24.2324 1.70525 24.3024 1.64565C24.5741 1.41444 24.9723 1.41228 25.247 1.63991C25.3145 1.69592 26.9136 3.03366 27.9124 5.01479C28.0952 5.37741 27.9494 5.81974 27.5868 6.00213C27.2231 6.18667 26.7815 6.03875 26.5991 5.67685C26.0501 4.58755 25.2771 3.71295 24.7849 3.21749C24.2783 3.73952 23.4726 4.67515 22.9366 5.81974C22.8117 6.08686 22.5467 6.2434 22.2702 6.2434Z" fill="white"/>
<path d="M24.8006 9.70627C24.7475 9.70627 24.6937 9.70053 24.6398 9.68832C24.2434 9.6 23.9939 9.20722 24.0822 8.81085C24.4194 7.30077 25.3327 5.94148 26.7965 4.77104C28.2481 3.60706 29.7204 3.06062 29.7825 3.03764C30.1164 2.91629 30.4909 3.04985 30.6704 3.3579C30.7325 3.46417 32.1931 6.00467 32.0042 8.90922C31.9777 9.31421 31.6237 9.61723 31.2226 9.59497C30.8173 9.5684 30.5103 9.21871 30.5365 8.813C30.6471 7.11407 30.0615 5.51064 29.6896 4.68272C29.1898 4.92471 28.4448 5.334 27.7156 5.91922C26.5193 6.87568 25.7801 7.95636 25.5176 9.13111C25.4412 9.47362 25.1374 9.70627 24.8006 9.70627Z" fill="#D9C18A"/>
<path d="M25.0055 10.3763C24.6781 10.3763 24.3794 10.1566 24.2939 9.82485C24.2419 9.62307 24.1841 9.4213 24.1126 9.23317C23.6839 8.03401 22.9099 6.97774 21.8062 6.07873C20.9675 5.39872 20.1188 4.9643 19.5802 4.72734C19.2183 5.51864 18.6618 7.10268 18.9728 8.88203C19.0428 9.28199 18.7753 9.66257 18.3753 9.73294C17.9743 9.80259 17.5944 9.53475 17.5244 9.13479C16.9816 6.03062 18.5455 3.51453 18.6126 3.40898C18.7911 3.1275 19.1354 3.00184 19.4542 3.10093C19.5217 3.12247 21.1284 3.63588 22.7336 4.93773C24.0494 6.00907 24.9772 7.28291 25.4924 8.72406C25.5778 8.94881 25.6522 9.20229 25.7179 9.4572C25.8195 9.8507 25.5829 10.2514 25.1894 10.3533C25.128 10.3691 25.0662 10.3763 25.0055 10.3763Z" fill="#D9C18A"/>
<path d="M24.7849 25.7357C22.0782 25.7357 19.5499 24.5753 17.6657 22.4685C14.736 19.1927 13.5185 13.8503 14.238 7.42656C14.2632 7.20253 14.3892 7.00291 14.5806 6.88371C14.7716 6.76523 15.0067 6.7401 15.2186 6.81693C15.5273 6.92823 22.1794 9.37251 24.4456 13.413C28.0489 8.77149 33.8684 6.90669 34.1912 6.80616C34.3933 6.74225 34.6137 6.77026 34.794 6.88156C34.9746 6.99214 35.0988 7.17524 35.1347 7.3842C36.4889 15.2994 34.4195 19.7521 32.4452 22.093C30.4924 24.408 27.7006 25.7357 24.7849 25.7357ZM15.6056 8.55751C15.15 14.1218 16.2587 18.6886 18.7622 21.4883C20.3635 23.2792 22.5026 24.2651 24.7849 24.2651C27.2662 24.2651 29.6483 23.1277 31.3211 21.1451C33.0229 19.1266 34.795 15.3145 33.8224 8.50724C31.4665 9.44431 24.6819 12.6684 23.3431 19.1353C23.2608 19.5323 22.8691 19.7822 22.4742 19.7061C22.0764 19.6235 21.8208 19.2344 21.9033 18.8365C22.2135 17.338 22.7708 16.0024 23.4827 14.8168C22.341 11.7155 17.5978 9.40769 15.6056 8.55751Z" fill="white"/>
<path d="M25.0063 48.5293C24.9654 48.5293 24.9238 48.5265 24.8817 48.5193C24.4821 48.4511 24.2129 48.0712 24.2804 47.6713C24.2865 47.6361 24.8656 44.0465 24.0308 35.6344C23.1911 27.1677 24.0118 24.9382 24.1084 24.712C24.2674 24.3379 24.7008 24.1648 25.0727 24.3235C25.4422 24.4808 25.6163 24.9044 25.467 25.2749C25.4418 25.3446 24.7047 27.5311 25.4943 35.4894C26.3531 44.1427 25.7556 47.7696 25.7298 47.9197C25.6684 48.2773 25.3578 48.5293 25.0063 48.5293Z" fill="white"/>
<path d="M30.9148 33.4597C29.1261 33.4597 27.764 32.7531 27.6807 32.7093C27.382 32.5506 27.2297 32.2088 27.3123 31.8807C27.3525 31.7198 28.3323 27.9313 31.2642 26.4607C34.205 24.9873 37.8215 26.4737 37.9741 26.5383C38.1572 26.6151 38.3015 26.763 38.3741 26.9483C38.4466 27.1328 38.4408 27.3396 38.3586 27.5206C38.2875 27.6771 36.5821 31.3716 33.712 32.8098C32.7445 33.2945 31.7797 33.4597 30.9148 33.4597ZM28.9301 31.6387C29.7724 31.9302 31.439 32.3029 33.0532 31.4951C34.7662 30.637 36.0404 28.7004 36.6396 27.6398C35.5621 27.3346 33.5494 26.9605 31.9234 27.7748C30.2025 28.6379 29.2931 30.6348 28.9301 31.6387Z" fill="white"/>
<path d="M18.8637 37.8194C18.0318 37.8194 17.1285 37.66 16.2324 37.2105C13.2962 35.7385 11.6932 31.7324 11.6264 31.563C11.4846 31.2025 11.6468 30.7939 11.9969 30.6288C12.157 30.5534 15.9574 28.792 18.9614 30.2992C21.9578 31.8006 22.8292 35.9008 22.8647 36.0745C22.9279 36.3826 22.7883 36.6971 22.5176 36.8565C22.4249 36.9104 20.8481 37.8194 18.8637 37.8194ZM13.2998 31.6944C13.8466 32.8074 15.105 35.0003 16.8916 35.8965C18.6041 36.7531 20.4269 36.1894 21.2793 35.8268C20.9633 34.7806 20.0948 32.5122 18.3022 31.6132C16.5903 30.7559 14.3913 31.3159 13.2998 31.6944Z" fill="white"/>
</svg>
