<svg width="50" height="50" viewBox="0 0 50 50" fill="none" xmlns="http://www.w3.org/2000/svg">
<path d="M22.3115 8.31532C22.3115 12.9844 24.613 16.433 24.76 16.6462C24.3997 16.433 18.7012 12.9844 18.7012 8.31532C18.7012 6.53587 20.1497 5.09473 21.9219 5.09473C22.3482 5.09473 22.7526 5.1756 23.1277 5.33003C22.6498 5.80058 22.3115 6.96236 22.3115 8.31532Z" fill="#E2E5EC"/>
<path d="M30.8342 8.31532C30.8342 13.1315 24.7754 16.6535 24.7754 16.6535C24.9224 16.433 27.224 12.9844 27.224 8.31532C27.224 6.96972 26.893 5.8153 26.4151 5.33003C26.7901 5.1756 27.1945 5.09473 27.6211 5.09473C29.3931 5.09473 30.8342 6.53587 30.8342 8.31532Z" fill="#E2E5EC"/>
<path d="M39.2763 45.9119C38.8702 45.9119 38.541 45.583 38.541 45.1766V36.0507C38.541 35.6443 38.8702 35.3154 39.2763 35.3154C39.6824 35.3154 40.0116 35.6443 40.0116 36.0507V45.1766C40.0116 45.583 39.6824 45.9119 39.2763 45.9119Z" fill="white"/>
<path d="M9.8974 46.3628C9.49134 46.3628 9.16211 46.0339 9.16211 45.6275V31.5205C9.16211 31.114 9.49134 30.7852 9.8974 30.7852C10.3035 30.7852 10.6327 31.114 10.6327 31.5205V45.6275C10.6327 46.0339 10.3035 46.3628 9.8974 46.3628Z" fill="white"/>
<path d="M14.8649 31.6886C14.6007 31.6886 14.3343 31.6598 14.0704 31.6002C13.674 31.5119 13.4248 31.1184 13.5139 30.722C13.6026 30.3264 13.9953 30.0765 14.3921 30.1655C15.0322 30.3106 15.6953 30.1533 16.2131 29.739C16.7247 29.3297 17.018 28.7172 17.018 28.0595V17.3316C17.018 16.1763 16.2432 15.1423 15.1342 14.817L12.8224 14.137L10.4815 17.2649C10.3426 17.4501 10.1243 17.5593 9.89269 17.5593C9.66076 17.5593 9.44211 17.4494 9.30352 17.2642L6.96983 14.137L4.65911 14.8163C3.5497 15.1423 2.77528 16.1763 2.77528 17.3316V28.0595C2.77528 28.7172 3.0686 29.3297 3.58022 29.739C4.09758 30.1533 4.76107 30.3099 5.40122 30.1655C5.79831 30.0758 6.19073 30.3264 6.27941 30.722C6.36845 31.1184 6.11929 31.5119 5.72292 31.6002C4.64511 31.8437 3.52888 31.5823 2.6611 30.8872C1.79907 30.1971 1.30469 29.166 1.30469 28.0595V17.3316C1.30469 15.5279 2.51354 13.9137 4.24443 13.4053L7.04558 12.5824C7.34142 12.4962 7.65845 12.6018 7.84227 12.8474L9.89341 15.5961L11.951 12.8466C12.1352 12.6018 12.4522 12.4969 12.7473 12.5824L15.5489 13.406C17.2794 13.9137 18.4886 15.5279 18.4886 17.3316V28.0595C18.4886 29.166 17.9942 30.1971 17.1322 30.8872C16.477 31.4121 15.6799 31.6886 14.8649 31.6886Z" fill="#D9C18A"/>
<path d="M7.73017 48.5293C6.12997 48.5293 4.82812 47.2275 4.82812 45.6276V20.7138C4.82812 20.3074 5.15736 19.9785 5.56342 19.9785C5.96948 19.9785 6.29871 20.3074 6.29871 20.7138V45.6276C6.29871 46.4168 6.94102 47.0587 7.73017 47.0587C8.51932 47.0587 9.16126 46.4168 9.16126 45.6276C9.16126 45.2212 9.49049 44.8923 9.89656 44.8923C10.3026 44.8923 10.6319 45.2212 10.6319 45.6276C10.6319 47.2275 9.33001 48.5293 7.73017 48.5293Z" fill="#D9C18A"/>
<path d="M12.0642 48.5293C10.464 48.5293 9.16211 47.2275 9.16211 45.6276C9.16211 45.2212 9.49134 44.8923 9.8974 44.8923C10.3035 44.8923 10.6327 45.2212 10.6327 45.6276C10.6327 46.4168 11.275 47.0587 12.0642 47.0587C12.8533 47.0587 13.4952 46.4168 13.4952 45.6276V20.7138C13.4952 20.3074 13.8245 19.9785 14.2305 19.9785C14.6366 19.9785 14.9658 20.3074 14.9658 20.7138V45.6276C14.9658 47.2275 13.664 48.5293 12.0642 48.5293Z" fill="#D9C18A"/>
<path d="M9.89656 11.6076C7.10186 11.6076 4.82812 9.33419 4.82812 6.53949C4.82812 3.7448 7.10186 1.4707 9.89656 1.4707C12.6912 1.4707 14.965 3.7448 14.965 6.53949C14.965 9.33419 12.6912 11.6076 9.89656 11.6076ZM9.89656 2.94129C7.91255 2.94129 6.29871 4.55549 6.29871 6.53949C6.29871 8.52349 7.91255 10.137 9.89656 10.137C11.8806 10.137 13.4944 8.52349 13.4944 6.53949C13.4944 4.55549 11.8806 2.94129 9.89656 2.94129Z" fill="#D9C18A"/>
<path d="M39.2756 36.7953C36.8784 36.7953 34.4808 36.1742 32.0986 34.9319C31.797 34.7747 31.6426 34.4314 31.7252 34.1011L35.5708 18.7483C35.6699 18.3548 36.0691 18.1171 36.463 18.214C36.8568 18.3124 37.0959 18.7116 36.9976 19.1059L33.2949 33.8871C37.3153 35.8216 41.237 35.823 45.251 33.8871L41.5418 19.1059C41.4427 18.7124 41.6818 18.3124 42.0761 18.214C42.4706 18.1171 42.8695 18.3548 42.9679 18.7483L46.8206 34.1011C46.9036 34.4307 46.7495 34.7747 46.448 34.9319C44.0694 36.1742 41.6729 36.7946 39.2756 36.7953Z" fill="#D9C18A"/>
<path d="M41.3497 47.9849C40.6144 47.9849 39.9111 47.6984 39.3697 47.1771C38.8282 46.6156 38.541 45.9119 38.541 45.1766C38.541 44.7701 38.8702 44.4413 39.2763 44.4413C39.6824 44.4413 40.0116 44.7701 40.0116 45.1766C40.0116 45.5298 40.1527 45.8709 40.4091 46.1373C40.655 46.3736 40.9964 46.5143 41.3497 46.5143C42.0879 46.5143 42.6882 45.914 42.6882 45.1766V36.0507C42.6882 35.6443 43.0174 35.3154 43.4235 35.3154C43.8295 35.3154 44.1588 35.6443 44.1588 36.0507V45.1766C44.1588 46.7254 42.8986 47.9849 41.3497 47.9849Z" fill="#D9C18A"/>
<path d="M37.2026 47.9849C35.6466 47.9849 34.3867 46.7254 34.3867 45.1766V36.0507C34.3867 35.6443 34.7159 35.3154 35.122 35.3154C35.5281 35.3154 35.8573 35.6443 35.8573 36.0507V45.1766C35.8573 45.914 36.4576 46.5143 37.1954 46.5143C37.9408 46.5143 38.5411 45.914 38.5411 45.1766C38.5411 44.7701 38.8703 44.4413 39.2764 44.4413C39.6824 44.4413 40.0116 44.7701 40.0116 45.1766C40.0116 46.7254 38.7515 47.9849 37.2026 47.9849Z" fill="#D9C18A"/>
<path d="M39.4415 11.6076C36.6468 11.6076 34.373 9.33419 34.373 6.53949C34.373 3.7448 36.6468 1.4707 39.4415 1.4707C42.2362 1.4707 44.5099 3.7448 44.5099 6.53949C44.5099 9.33419 42.2362 11.6076 39.4415 11.6076ZM39.4415 2.94129C37.4575 2.94129 35.8436 4.55549 35.8436 6.53949C35.8436 8.52349 37.4575 10.137 39.4415 10.137C41.4255 10.137 43.0393 8.52349 43.0393 6.53949C43.0393 4.55549 41.4255 2.94129 39.4415 2.94129Z" fill="#D9C18A"/>
<path d="M45.5977 30.4115C45.3934 30.4115 45.1869 30.3907 44.9812 30.3498C44.9514 30.344 44.9223 30.3361 44.8932 30.3261C44.508 30.1982 44.2987 29.781 44.4272 29.3962C44.5479 29.0343 44.9241 28.826 45.2871 28.9115C45.8436 29.0156 46.38 28.8433 46.7699 28.4354C47.1634 28.024 47.3102 27.471 47.1731 26.9189L44.8078 17.3844C44.4233 15.8327 43.0385 14.7499 41.4405 14.7499H37.1037C35.5057 14.7499 34.1205 15.8334 33.736 17.3844L31.3714 26.9181C31.2343 27.471 31.3811 28.024 31.775 28.4354C32.1685 28.8476 32.7149 29.0192 33.2736 28.9072C33.6732 28.8253 34.0591 29.0845 34.1396 29.4831C34.2196 29.8816 33.9615 30.2693 33.5637 30.349C32.5153 30.5623 31.4501 30.2248 30.7119 29.4522C29.9737 28.6795 29.6869 27.6003 29.9439 26.5634L32.3085 17.0297C32.8564 14.8217 34.8282 13.2793 37.1037 13.2793H41.4405C43.716 13.2793 45.6878 14.8217 46.2353 17.0304L48.6006 26.5641C48.8577 27.6003 48.5708 28.6795 47.8333 29.4515C47.2399 30.0726 46.4349 30.4115 45.5977 30.4115Z" fill="#D9C18A"/>
<path d="M24.7726 17.3874C24.6451 17.3874 24.5177 17.3543 24.4035 17.2883C24.1407 17.1353 17.9668 13.4933 17.9668 8.31537C17.9668 6.13319 19.7422 4.35742 21.9247 4.35742C23.0126 4.35742 24.0323 4.80406 24.769 5.56879C25.5014 4.80406 26.5232 4.35742 27.6197 4.35742C29.7961 4.35742 31.5669 6.13319 31.5669 8.31537C31.5669 13.4926 25.4045 17.1353 25.142 17.2875C25.0278 17.3543 24.9004 17.3874 24.7726 17.3874ZM21.9247 5.82801C20.5533 5.82801 19.4374 6.94388 19.4374 8.31537C19.4374 11.9997 23.5066 14.9546 24.7715 15.7832C26.0338 14.9517 30.0963 11.9904 30.0963 8.31537C30.0963 6.94388 28.9854 5.82801 27.6197 5.82801C26.6923 5.82801 25.8511 6.33568 25.4242 7.15283C25.2982 7.39482 25.0483 7.54633 24.7758 7.54777C24.7747 7.54777 24.7737 7.54777 24.7726 7.54777C24.5011 7.54777 24.2516 7.39841 24.1238 7.15858C23.6858 6.33783 22.8431 5.82801 21.9247 5.82801Z" fill="#D9C18A"/>
</svg>
