<svg width="50" height="50" viewBox="0 0 50 50" fill="none" xmlns="http://www.w3.org/2000/svg">
<path d="M25.0005 50C11.2152 50 0 38.7848 0 24.9998C0 11.2149 11.2152 0 25.0005 0C38.7855 0 50.0007 11.2152 50.0007 24.9998C50.0007 38.7848 38.7855 50 25.0005 50ZM25.0005 2.82117C12.7707 2.82117 2.82117 12.7707 2.82117 24.9998C2.82117 37.2293 12.7707 47.1788 25.0005 47.1788C37.23 47.1788 47.1795 37.2293 47.1795 24.9998C47.1795 12.7707 37.23 2.82117 25.0005 2.82117Z" fill="#D9C18A"/>
<path d="M35.8111 16.8023H30.6787C30.2806 15.7574 29.272 15.0137 28.0871 15.0137H21.9147C20.7298 15.0137 19.7213 15.7574 19.3231 16.8023H14.1904C12.6574 16.8023 11.415 18.0447 11.415 19.5776V30.9061C11.415 32.439 12.6578 33.6814 14.1904 33.6814H20.6473C20.5532 33.8433 20.495 34.0294 20.495 34.2305C20.495 34.8367 20.9866 35.3282 21.5928 35.3282H22.0949L15.0963 46.2017C14.5885 46.9906 15.1548 48.0285 16.0929 48.0285H16.1267C16.5305 48.0285 16.9068 47.8229 17.1247 47.4826L23.903 36.9056V46.7959C23.903 47.4505 24.4337 47.9812 25.0882 47.9812C25.7427 47.9812 26.2734 47.4505 26.2734 46.7959V36.7868L33.1282 47.4829C33.3461 47.8229 33.7224 48.0288 34.1262 48.0288H34.16C35.0981 48.0288 35.6644 46.991 35.1566 46.2021L28.158 35.3286H28.4091C29.0153 35.3286 29.5069 34.837 29.5069 34.2308C29.5069 34.0298 29.449 33.8439 29.3545 33.6817H35.8115C37.3444 33.6817 38.5868 32.439 38.5868 30.9064V19.578C38.5864 18.0447 37.3437 16.8023 35.8111 16.8023ZM25.9927 19.585C27.6198 19.8721 28.9631 20.8225 29.7946 22.1086L27.051 25.3265L24.969 19.4972C25.3065 19.4958 25.6485 19.524 25.9927 19.585ZM24.7024 19.5046L26.1264 23.4909L20.0214 22.4136C20.9703 20.7213 22.7385 19.6059 24.7024 19.5046ZM19.3795 24.2139C19.4779 23.6556 19.655 23.1313 19.8962 22.6492L24.0666 23.3852L20.0686 28.0785C19.4123 26.9529 19.1355 25.5977 19.3795 24.2139ZM24.0087 30.8271C22.3827 30.54 21.0398 29.5907 20.2083 28.3056L22.9522 25.0846L25.0981 30.9135C24.7391 30.9195 24.3751 30.8916 24.0087 30.8271ZM25.3643 30.9032L23.9001 26.9254L29.9805 27.9985C29.0417 29.6721 27.3021 30.7812 25.3643 30.9032ZM30.6219 26.1979C30.5235 26.7561 30.3465 27.2805 30.1053 27.7626L25.9349 27.0266L29.9343 22.3357C30.5895 23.4613 30.8656 24.8151 30.6219 26.1979Z" fill="#D9C18A"/>
</svg>
