<svg width="209" height="50" viewBox="0 0 209 50" fill="none" xmlns="http://www.w3.org/2000/svg">
<path d="M25.0005 50C11.2152 50 0 38.7848 0 24.9998C0 11.2149 11.2152 0 25.0005 0C38.7855 0 50.0007 11.2152 50.0007 24.9998C50.0007 38.7848 38.7855 50 25.0005 50ZM25.0005 2.82117C12.7707 2.82117 2.82117 12.7707 2.82117 24.9998C2.82117 37.2293 12.7707 47.1788 25.0005 47.1788C37.23 47.1788 47.1795 37.2293 47.1795 24.9998C47.1795 12.7707 37.23 2.82117 25.0005 2.82117Z" fill="#D9C18A"/>
<path d="M35.8111 16.8023H30.6787C30.2806 15.7574 29.272 15.0137 28.0871 15.0137H21.9147C20.7298 15.0137 19.7213 15.7574 19.3231 16.8023H14.1904C12.6574 16.8023 11.415 18.0447 11.415 19.5776V30.9061C11.415 32.439 12.6578 33.6814 14.1904 33.6814H20.6473C20.5532 33.8433 20.495 34.0294 20.495 34.2305C20.495 34.8367 20.9866 35.3282 21.5928 35.3282H22.0949L15.0963 46.2017C14.5885 46.9906 15.1548 48.0285 16.0929 48.0285H16.1267C16.5305 48.0285 16.9068 47.8229 17.1247 47.4826L23.903 36.9056V46.7959C23.903 47.4505 24.4337 47.9812 25.0882 47.9812C25.7427 47.9812 26.2734 47.4505 26.2734 46.7959V36.7868L33.1282 47.4829C33.3461 47.8229 33.7224 48.0288 34.1262 48.0288H34.16C35.0981 48.0288 35.6644 46.991 35.1566 46.2021L28.158 35.3286H28.4091C29.0153 35.3286 29.5069 34.837 29.5069 34.2308C29.5069 34.0298 29.449 33.8439 29.3545 33.6817H35.8115C37.3444 33.6817 38.5868 32.439 38.5868 30.9064V19.578C38.5864 18.0447 37.3437 16.8023 35.8111 16.8023ZM25.9927 19.585C27.6198 19.8721 28.9631 20.8225 29.7946 22.1086L27.051 25.3265L24.969 19.4972C25.3065 19.4958 25.6485 19.524 25.9927 19.585ZM24.7024 19.5046L26.1264 23.4909L20.0214 22.4136C20.9703 20.7213 22.7385 19.6059 24.7024 19.5046ZM19.3795 24.2139C19.4779 23.6556 19.655 23.1313 19.8962 22.6492L24.0666 23.3852L20.0686 28.0785C19.4123 26.9529 19.1355 25.5977 19.3795 24.2139ZM24.0087 30.8271C22.3827 30.54 21.0398 29.5907 20.2083 28.3056L22.9522 25.0846L25.0981 30.9135C24.7391 30.9195 24.3751 30.8916 24.0087 30.8271ZM25.3643 30.9032L23.9001 26.9254L29.9805 27.9985C29.0417 29.6721 27.3021 30.7812 25.3643 30.9032ZM30.6219 26.1979C30.5235 26.7561 30.3465 27.2805 30.1053 27.7626L25.9349 27.0266L29.9343 22.3357C30.5895 23.4613 30.8656 24.8151 30.6219 26.1979Z" fill="#D9C18A"/>
<path d="M67.795 35V16.046H75.543C77.1376 16.046 78.4636 16.306 79.521 16.826C80.5783 17.3287 81.367 18.048 81.887 18.984C82.4243 19.9027 82.693 20.9947 82.693 22.26C82.693 23.5947 82.3983 24.73 81.809 25.666C81.2196 26.602 80.3876 27.3213 79.313 27.824C78.2383 28.3093 76.9816 28.552 75.543 28.552H71.487V25.406H75.205C76.3663 25.406 77.2156 25.12 77.753 24.548C78.3076 23.976 78.585 23.2567 78.585 22.39C78.585 21.3847 78.273 20.648 77.649 20.18C77.0423 19.712 76.2276 19.478 75.205 19.478H71.331L71.851 18.984V35H67.795ZM85.2093 35V16.046H89.0313V23.586H89.1873C89.5686 22.65 90.158 21.9567 90.9553 21.506C91.7526 21.038 92.6453 20.804 93.6333 20.804C94.3266 20.804 94.968 20.9167 95.5573 21.142C96.164 21.35 96.684 21.6793 97.1173 22.13C97.568 22.5807 97.9146 23.1787 98.1573 23.924C98.4173 24.652 98.5473 25.536 98.5473 26.576V35H94.7253V27.408C94.7253 26.628 94.63 25.978 94.4393 25.458C94.266 24.938 93.9886 24.5567 93.6073 24.314C93.226 24.054 92.7233 23.924 92.0993 23.924C91.4406 23.924 90.886 24.08 90.4353 24.392C89.9846 24.704 89.638 25.1113 89.3953 25.614C89.1526 26.1167 89.0313 26.6627 89.0313 27.252V35H85.2093ZM108.029 35.234C106.971 35.234 106.018 35.078 105.169 34.766C104.319 34.4367 103.583 33.96 102.959 33.336C102.335 32.712 101.858 31.958 101.529 31.074C101.199 30.1727 101.035 29.1587 101.035 28.032C101.035 26.5933 101.312 25.3367 101.867 24.262C102.421 23.17 103.219 22.3207 104.259 21.714C105.299 21.1073 106.555 20.804 108.029 20.804C109.069 20.804 110.013 20.9687 110.863 21.298C111.712 21.6273 112.44 22.104 113.047 22.728C113.671 23.352 114.147 24.106 114.477 24.99C114.823 25.874 114.997 26.888 114.997 28.032C114.997 29.4533 114.719 30.71 114.165 31.802C113.61 32.8767 112.813 33.7173 111.773 34.324C110.75 34.9307 109.502 35.234 108.029 35.234ZM108.003 32.14C108.627 32.14 109.173 31.9927 109.641 31.698C110.126 31.386 110.49 30.9267 110.733 30.32C110.993 29.7133 111.123 28.9507 111.123 28.032C111.123 27.3387 111.053 26.7407 110.915 26.238C110.776 25.718 110.568 25.2847 110.291 24.938C110.013 24.5913 109.684 24.34 109.303 24.184C108.921 24.0107 108.497 23.924 108.029 23.924C107.405 23.924 106.85 24.0713 106.365 24.366C105.897 24.6607 105.533 25.1113 105.273 25.718C105.013 26.3247 104.883 27.096 104.883 28.032C104.883 28.7253 104.952 29.332 105.091 29.852C105.247 30.3547 105.463 30.7793 105.741 31.126C106.018 31.4553 106.347 31.7067 106.729 31.88C107.11 32.0533 107.535 32.14 108.003 32.14ZM122.266 35C121.07 35 120.186 34.7227 119.614 34.168C119.042 33.596 118.756 32.6947 118.756 31.464V24.132H116.26V21.064H118.756V17.268L122.578 16.904V21.064H125.386V24.132H122.578V30.762C122.578 31.1953 122.682 31.49 122.89 31.646C123.098 31.802 123.393 31.88 123.774 31.88H125.386V35H122.266ZM134.029 35.234C132.971 35.234 132.018 35.078 131.169 34.766C130.319 34.4367 129.583 33.96 128.959 33.336C128.335 32.712 127.858 31.958 127.529 31.074C127.199 30.1727 127.035 29.1587 127.035 28.032C127.035 26.5933 127.312 25.3367 127.867 24.262C128.421 23.17 129.219 22.3207 130.259 21.714C131.299 21.1073 132.555 20.804 134.029 20.804C135.069 20.804 136.013 20.9687 136.863 21.298C137.712 21.6273 138.44 22.104 139.047 22.728C139.671 23.352 140.147 24.106 140.477 24.99C140.823 25.874 140.997 26.888 140.997 28.032C140.997 29.4533 140.719 30.71 140.165 31.802C139.61 32.8767 138.813 33.7173 137.773 34.324C136.75 34.9307 135.502 35.234 134.029 35.234ZM134.003 32.14C134.627 32.14 135.173 31.9927 135.641 31.698C136.126 31.386 136.49 30.9267 136.733 30.32C136.993 29.7133 137.123 28.9507 137.123 28.032C137.123 27.3387 137.053 26.7407 136.915 26.238C136.776 25.718 136.568 25.2847 136.291 24.938C136.013 24.5913 135.684 24.34 135.303 24.184C134.921 24.0107 134.497 23.924 134.029 23.924C133.405 23.924 132.85 24.0713 132.365 24.366C131.897 24.6607 131.533 25.1113 131.273 25.718C131.013 26.3247 130.883 27.096 130.883 28.032C130.883 28.7253 130.952 29.332 131.091 29.852C131.247 30.3547 131.463 30.7793 131.741 31.126C132.018 31.4553 132.347 31.7067 132.729 31.88C133.11 32.0533 133.535 32.14 134.003 32.14ZM150.074 35.234C149.034 35.234 148.089 35.0693 147.24 34.74C146.39 34.3933 145.654 33.8993 145.03 33.258C144.423 32.6167 143.955 31.854 143.626 30.97C143.314 30.086 143.158 29.1067 143.158 28.032C143.158 26.94 143.322 25.952 143.652 25.068C143.981 24.1667 144.449 23.404 145.056 22.78C145.68 22.1387 146.425 21.6533 147.292 21.324C148.158 20.9773 149.129 20.804 150.204 20.804C151.382 20.804 152.431 21.0293 153.35 21.48C154.286 21.9133 155.031 22.5287 155.586 23.326C156.14 24.106 156.444 25.016 156.496 26.056H152.778C152.691 25.588 152.518 25.198 152.258 24.886C152.015 24.574 151.703 24.34 151.322 24.184C150.958 24.0107 150.55 23.924 150.1 23.924C149.597 23.924 149.155 24.028 148.774 24.236C148.392 24.4267 148.072 24.704 147.812 25.068C147.552 25.4147 147.352 25.8393 147.214 26.342C147.092 26.8447 147.032 27.408 147.032 28.032C147.032 28.9507 147.153 29.7133 147.396 30.32C147.656 30.9093 148.011 31.36 148.462 31.672C148.93 31.9667 149.467 32.114 150.074 32.114C150.611 32.114 151.07 32.0273 151.452 31.854C151.85 31.6633 152.162 31.4033 152.388 31.074C152.63 30.7273 152.778 30.346 152.83 29.93H156.548C156.478 31.0047 156.158 31.9407 155.586 32.738C155.014 33.5353 154.26 34.1507 153.324 34.584C152.388 35.0173 151.304 35.234 150.074 35.234ZM158.944 35V16.046H162.766V35H158.944ZM166.053 35V21.064H169.875V35H166.053ZM167.951 19.426C167.362 19.426 166.876 19.27 166.495 18.958C166.114 18.646 165.923 18.2127 165.923 17.658C165.923 17.086 166.114 16.644 166.495 16.332C166.876 16.02 167.362 15.864 167.951 15.864C168.558 15.864 169.052 16.02 169.433 16.332C169.814 16.644 170.005 17.086 170.005 17.658C170.005 18.2127 169.814 18.646 169.433 18.958C169.052 19.27 168.558 19.426 167.951 19.426ZM179.298 35.234C178.258 35.234 177.314 35.0693 176.464 34.74C175.615 34.3933 174.878 33.8993 174.254 33.258C173.648 32.6167 173.18 31.854 172.85 30.97C172.538 30.086 172.382 29.1067 172.382 28.032C172.382 26.94 172.547 25.952 172.876 25.068C173.206 24.1667 173.674 23.404 174.28 22.78C174.904 22.1387 175.65 21.6533 176.516 21.324C177.383 20.9773 178.354 20.804 179.428 20.804C180.607 20.804 181.656 21.0293 182.574 21.48C183.51 21.9133 184.256 22.5287 184.81 23.326C185.365 24.106 185.668 25.016 185.72 26.056H182.002C181.916 25.588 181.742 25.198 181.482 24.886C181.24 24.574 180.928 24.34 180.546 24.184C180.182 24.0107 179.775 23.924 179.324 23.924C178.822 23.924 178.38 24.028 177.998 24.236C177.617 24.4267 177.296 24.704 177.036 25.068C176.776 25.4147 176.577 25.8393 176.438 26.342C176.317 26.8447 176.256 27.408 176.256 28.032C176.256 28.9507 176.378 29.7133 176.62 30.32C176.88 30.9093 177.236 31.36 177.686 31.672C178.154 31.9667 178.692 32.114 179.298 32.114C179.836 32.114 180.295 32.0273 180.676 31.854C181.075 31.6633 181.387 31.4033 181.612 31.074C181.855 30.7273 182.002 30.346 182.054 29.93H185.772C185.703 31.0047 185.382 31.9407 184.81 32.738C184.238 33.5353 183.484 34.1507 182.548 34.584C181.612 35.0173 180.529 35.234 179.298 35.234ZM188.168 35V16.046H192.042V26.836L193.186 25.51L197.32 21.064H202.026L196.67 26.576L202.13 35H197.632L194.798 30.58L193.966 29.124L192.042 31.022V35H188.168Z" fill="white"/>
<path d="M205.359 35.208C204.77 35.208 204.293 35.0433 203.929 34.714C203.565 34.3673 203.383 33.9167 203.383 33.362C203.383 32.79 203.565 32.3393 203.929 32.01C204.293 31.6633 204.77 31.49 205.359 31.49C205.948 31.49 206.425 31.6633 206.789 32.01C207.153 32.3393 207.335 32.79 207.335 33.362C207.335 33.9167 207.153 34.3673 206.789 34.714C206.425 35.0433 205.948 35.208 205.359 35.208Z" fill="#D9C18A"/>
</svg>
